<svg xmlns="http://www.w3.org/2000/svg" width="222.31" height="210.406" viewBox="0 0 222.31 210.406">
  <g id="Component_15_1" data-name="Component 15 – 1" transform="translate(0 0)">
    <g id="freepik--background-complete--inject-29" transform="translate(3.765)">
      <rect id="Rectangle_5558" data-name="Rectangle 5558" width="13.619" height="5.755" transform="translate(207.03 150.68) rotate(180)" fill="#ebebeb"/>
      <rect id="Rectangle_5559" data-name="Rectangle 5559" width="13.619" height="5.755" transform="translate(214.631 157.937) rotate(180)" fill="#ebebeb"/>
      <rect id="Rectangle_5560" data-name="Rectangle 5560" width="13.619" height="5.755" transform="translate(98.516 87.127) rotate(180)" fill="#ebebeb"/>
      <rect id="Rectangle_5561" data-name="Rectangle 5561" width="13.619" height="5.755" transform="translate(106.117 94.384) rotate(180)" fill="#ebebeb"/>
      <rect id="Rectangle_5562" data-name="Rectangle 5562" width="13.619" height="5.755" transform="translate(113.683 87.127) rotate(180)" fill="#ebebeb"/>
      <rect id="Rectangle_5563" data-name="Rectangle 5563" width="13.619" height="5.755" transform="translate(13.619 157.932) rotate(180)" fill="#ebebeb"/>
      <rect id="Rectangle_5564" data-name="Rectangle 5564" width="13.619" height="5.755" transform="translate(21.22 12.326) rotate(180)" fill="#ebebeb"/>
      <rect id="Rectangle_5565" data-name="Rectangle 5565" width="13.619" height="5.755" transform="translate(13.619 19.583) rotate(180)" fill="#ebebeb"/>
      <rect id="Rectangle_5566" data-name="Rectangle 5566" width="13.619" height="5.755" transform="translate(207.03 12.326) rotate(180)" fill="#ebebeb"/>
      <rect id="Rectangle_5567" data-name="Rectangle 5567" width="73.443" height="81.94" transform="translate(137.063 19.187)" fill="#dbdbdb"/>
      <rect id="Rectangle_5568" data-name="Rectangle 5568" width="63.769" height="72.307" transform="translate(141.903 24.027)" fill="#ebebeb"/>
      <rect id="Rectangle_5569" data-name="Rectangle 5569" width="22.475" height="26.636" transform="translate(147.668 36.812)" fill="#fff"/>
      <path id="Path_484" data-name="Path 484" d="M350.355,108.287a.807.807,0,1,1-.807-.807.807.807,0,0,1,.807.807Z" transform="translate(-190.642 -69.665)" fill="#a6a6a6"/>
      <path id="Path_485" data-name="Path 485" d="M336.78,115.7c2.273-.175,4.547-.185,6.815-.211s4.547.036,6.82.211c-2.273.175-4.546.185-6.82.211S339.053,115.87,336.78,115.7Z" transform="translate(-184.833 -73.55)" fill="#ebebeb"/>
      <path id="Path_486" data-name="Path 486" d="M336.78,119.8a32.664,32.664,0,0,1,7.411,0,27.967,27.967,0,0,1-3.708.211,28.837,28.837,0,0,1-3.7-.211Z" transform="translate(-184.833 -75.546)" fill="#ebebeb"/>
      <path id="Path_487" data-name="Path 487" d="M336.78,123.89a47.077,47.077,0,0,1,4.737-.211,45.506,45.506,0,0,1,4.732.211c-1.579.165-3.153.2-4.732.211A42.93,42.93,0,0,1,336.78,123.89Z" transform="translate(-184.833 -77.532)" fill="#ebebeb"/>
      <path id="Path_488" data-name="Path 488" d="M336.78,127.981c1.975-.165,3.95-.206,5.925-.211s3.95.046,5.925.211c-1.975.165-3.95.206-5.925.211S338.755,128.145,336.78,127.981Z" transform="translate(-184.833 -79.519)" fill="#ebebeb"/>
      <path id="Path_489" data-name="Path 489" d="M336.78,132.07c1.713-.165,3.43-.2,5.143-.211a50.582,50.582,0,0,1,5.143.211c-1.718.165-3.436.206-5.143.211S338.493,132.234,336.78,132.07Z" transform="translate(-184.833 -81.505)" fill="#ebebeb"/>
      <path id="Path_490" data-name="Path 490" d="M336.78,136.156c2.2-.175,4.392-.185,6.588-.211s4.392.036,6.588.211c-2.2.18-4.392.19-6.588.216S338.976,136.33,336.78,136.156Z" transform="translate(-184.833 -83.487)" fill="#ebebeb"/>
      <path id="Path_491" data-name="Path 491" d="M336.78,140.26a37.986,37.986,0,0,1,4.253-.211,36.9,36.9,0,0,1,4.258.211A43.052,43.052,0,0,1,336.78,140.26Z" transform="translate(-184.833 -85.482)" fill="#ebebeb"/>
      <path id="Path_492" data-name="Path 492" d="M336.78,144.346c2.273-.175,4.547-.185,6.815-.211s4.547.036,6.82.211c-2.273.175-4.546.185-6.82.211S339.053,144.52,336.78,144.346Z" transform="translate(-184.833 -87.465)" fill="#ebebeb"/>
      <path id="Path_493" data-name="Path 493" d="M336.78,148.436c2.273-.175,4.547-.185,6.815-.211s4.547.036,6.82.211c-2.273.175-4.546.19-6.82.211S339.053,148.621,336.78,148.436Z" transform="translate(-184.833 -89.451)" fill="#ebebeb"/>
      <rect id="Rectangle_5570" data-name="Rectangle 5570" width="26.595" height="31.517" transform="translate(173.569 53.419)" fill="#fff"/>
      <path id="Path_494" data-name="Path 494" d="M383.6,141.517a.807.807,0,1,1-.807-.807.808.808,0,0,1,.807.807Z" transform="translate(-206.791 -85.804)" fill="#a6a6a6"/>
      <path id="Path_495" data-name="Path 495" d="M386.05,152.906A19.035,19.035,0,0,1,389,152.69a18.338,18.338,0,0,1,2.947.216,20.737,20.737,0,0,1-5.9,0Z" transform="translate(-208.763 -91.622)" fill="#ebebeb"/>
      <path id="Path_496" data-name="Path 496" d="M386.05,157.526a31.725,31.725,0,0,1,3.821-.216,30.622,30.622,0,0,1,3.816.216,34.687,34.687,0,0,1-7.638,0Z" transform="translate(-208.763 -93.866)" fill="#ebebeb"/>
      <path id="Path_497" data-name="Path 497" d="M386.05,162.15a26.4,26.4,0,0,1,3.538-.211,25.481,25.481,0,0,1,3.538.211A29.793,29.793,0,0,1,386.05,162.15Z" transform="translate(-208.763 -96.114)" fill="#ebebeb"/>
      <path id="Path_498" data-name="Path 498" d="M386.05,166.8a26.4,26.4,0,0,1,3.538-.211,25.479,25.479,0,0,1,3.538.211A29.8,29.8,0,0,1,386.05,166.8Z" transform="translate(-208.763 -98.373)" fill="#ebebeb"/>
      <path id="Path_499" data-name="Path 499" d="M386.05,171.39a19.988,19.988,0,0,1,3.086-.211,19.362,19.362,0,0,1,3.086.211,22.538,22.538,0,0,1-6.172,0Z" transform="translate(-208.763 -100.602)" fill="#ebebeb"/>
      <path id="Path_500" data-name="Path 500" d="M386.05,176.01a32.53,32.53,0,0,1,3.934-.211,31.515,31.515,0,0,1,3.934.211A36.809,36.809,0,0,1,386.05,176.01Z" transform="translate(-208.763 -102.846)" fill="#ebebeb"/>
      <path id="Path_501" data-name="Path 501" d="M386.05,180.631a25.12,25.12,0,0,1,6.5,0A25.118,25.118,0,0,1,386.05,180.631Z" transform="translate(-208.763 -105.091)" fill="#ebebeb"/>
      <path id="Path_502" data-name="Path 502" d="M386.05,185.251a39.4,39.4,0,0,1,8.142,0,39.393,39.393,0,0,1-8.142,0Z" transform="translate(-208.763 -107.335)" fill="#ebebeb"/>
      <path id="Path_503" data-name="Path 503" d="M386.05,189.871a39.4,39.4,0,0,1,8.142,0A39.4,39.4,0,0,1,386.05,189.871Z" transform="translate(-208.763 -109.579)" fill="#ebebeb"/>
      <path id="Path_504" data-name="Path 504" d="M408.65,152.906a32.494,32.494,0,0,1,3.868-.216,31.373,31.373,0,0,1,3.862.216,35.529,35.529,0,0,1-7.715,0Z" transform="translate(-219.739 -91.622)" fill="#ebebeb"/>
      <path id="Path_505" data-name="Path 505" d="M408.65,157.525a14.162,14.162,0,0,1,2.541-.216,13.634,13.634,0,0,1,2.541.216,15.43,15.43,0,0,1-5.081,0Z" transform="translate(-219.739 -93.866)" fill="#ebebeb"/>
      <path id="Path_506" data-name="Path 506" d="M408.65,162.15a27.865,27.865,0,0,1,3.636-.211,26.944,26.944,0,0,1,3.636.211A31.455,31.455,0,0,1,408.65,162.15Z" transform="translate(-219.739 -96.114)" fill="#ebebeb"/>
      <path id="Path_507" data-name="Path 507" d="M408.65,166.8a26.392,26.392,0,0,1,3.538-.211,25.524,25.524,0,0,1,3.538.211A29.8,29.8,0,0,1,408.65,166.8Z" transform="translate(-219.739 -98.373)" fill="#ebebeb"/>
      <path id="Path_508" data-name="Path 508" d="M408.65,171.39a31.442,31.442,0,0,1,3.868-.211,30.382,30.382,0,0,1,3.863.211,35.529,35.529,0,0,1-7.715,0Z" transform="translate(-219.739 -100.602)" fill="#ebebeb"/>
      <path id="Path_509" data-name="Path 509" d="M408.65,176.01a19.947,19.947,0,0,1,3.086-.211,19.262,19.262,0,0,1,3.086.211A22.5,22.5,0,0,1,408.65,176.01Z" transform="translate(-219.739 -102.846)" fill="#ebebeb"/>
      <path id="Path_510" data-name="Path 510" d="M408.65,180.631a31.454,31.454,0,0,1,7.272,0A31.456,31.456,0,0,1,408.65,180.631Z" transform="translate(-219.739 -105.091)" fill="#ebebeb"/>
      <path id="Path_511" data-name="Path 511" d="M408.65,185.251a18.87,18.87,0,0,1,5.627,0A18.87,18.87,0,0,1,408.65,185.251Z" transform="translate(-219.739 -107.335)" fill="#ebebeb"/>
      <path id="Path_512" data-name="Path 512" d="M408.65,189.871a17.359,17.359,0,0,1,5.4,0A17.357,17.357,0,0,1,408.65,189.871Z" transform="translate(-219.739 -109.579)" fill="#ebebeb"/>
      <rect id="Rectangle_5571" data-name="Rectangle 5571" width="13.526" height="13.526" transform="translate(168.076 29.489)" fill="#a6a6a6"/>
      <path id="Path_513" data-name="Path 513" d="M381.335,93.237a.807.807,0,1,1-.807-.807.807.807,0,0,1,.807.807Z" transform="translate(-205.688 -62.355)" fill="#ebebeb"/>
      <rect id="Rectangle_5572" data-name="Rectangle 5572" width="1.826" height="72.389" transform="translate(203.79 24.027)" fill="#c7c7c7"/>
      <circle id="Ellipse_128" data-name="Ellipse 128" cx="22.208" cy="22.208" r="22.208" transform="matrix(0.581, -0.814, 0.814, 0.581, 10.245, 36.146)" fill="#ebebeb"/>
      <circle id="Ellipse_129" data-name="Ellipse 129" cx="21.19" cy="21.19" r="21.19" transform="matrix(0.6, -0.8, 0.8, 0.6, 12.571, 35.704)" fill="#dbdbdb"/>
      <circle id="Ellipse_130" data-name="Ellipse 130" cx="19.852" cy="19.852" r="19.852" transform="translate(14.548 26.814) rotate(-35.45)" fill="#fff"/>
      <path id="Path_514" data-name="Path 514" d="M125.642,74.372c-9.042,5.477-23.9,14.462-32.2,19.389A19.873,19.873,0,0,1,88,86.443L115.479,61a19.863,19.863,0,0,1,10.163,13.372Z" transform="translate(-64.002 -47.09)" fill="#ebebeb" opacity="0.5"/>
      <path id="Path_515" data-name="Path 515" d="M134.442,96.5a19.734,19.734,0,0,1-1.291,6.429L108.387,114.64a20.3,20.3,0,0,1-3.127-1.342C112.743,108.993,126.408,101.129,134.442,96.5Z" transform="translate(-72.385 -64.332)" fill="#ebebeb" opacity="0.5"/>
      <rect id="Rectangle_5573" data-name="Rectangle 5573" width="0.386" height="3.009" transform="translate(42.045 13.062)" fill="#c7c7c7"/>
      <rect id="Rectangle_5574" data-name="Rectangle 5574" width="0.386" height="3.009" transform="translate(32.867 15.618) rotate(-30)" fill="#c7c7c7"/>
      <rect id="Rectangle_5575" data-name="Rectangle 5575" width="0.387" height="3.019" transform="translate(26.352 22.24) rotate(-60.113)" fill="#c7c7c7"/>
      <rect id="Rectangle_5576" data-name="Rectangle 5576" width="3.009" height="0.386" transform="translate(23.828 31.284)" fill="#c7c7c7"/>
      <rect id="Rectangle_5577" data-name="Rectangle 5577" width="3.009" height="0.386" transform="translate(26.193 40.517) rotate(-30.01)" fill="#c7c7c7"/>
      <rect id="Rectangle_5578" data-name="Rectangle 5578" width="3.009" height="0.386" transform="translate(32.864 47.331) rotate(-60.02)" fill="#c7c7c7"/>
      <rect id="Rectangle_5579" data-name="Rectangle 5579" width="0.386" height="3.009" transform="translate(42.045 46.877)" fill="#c7c7c7"/>
      <rect id="Rectangle_5580" data-name="Rectangle 5580" width="0.386" height="3.009" transform="translate(49.771 44.906) rotate(-30)" fill="#c7c7c7"/>
      <rect id="Rectangle_5581" data-name="Rectangle 5581" width="0.386" height="3.009" transform="translate(55.481 39.345) rotate(-59.99)" fill="#c7c7c7"/>
      <rect id="Rectangle_5582" data-name="Rectangle 5582" width="3.009" height="0.386" transform="translate(57.639 31.284)" fill="#c7c7c7"/>
      <rect id="Rectangle_5583" data-name="Rectangle 5583" width="3.009" height="0.386" transform="matrix(0.866, -0.5, 0.5, 0.866, 55.48, 23.606)" fill="#c7c7c7"/>
      <rect id="Rectangle_5584" data-name="Rectangle 5584" width="3.009" height="0.386" transform="translate(49.776 18.035) rotate(-60.03)" fill="#c7c7c7"/>
      <path id="Path_516" data-name="Path 516" d="M122.864,62l.653,18.387-1.888-.021.72-18.371Z" transform="translate(-80.336 -47.571)" fill="#c7c7c7"/>
      <path id="Path_517" data-name="Path 517" d="M133.764,82.257,121.39,90.152l-.9-1.651,13.027-6.691Z" transform="translate(-79.782 -57.197)" fill="#a6a6a6"/>
      <path id="Path_518" data-name="Path 518" d="M123.5,94.543a.638.638,0,1,1-.187-.456A.643.643,0,0,1,123.5,94.543Z" transform="translate(-80.618 -63.069)" fill="#c7c7c7"/>
    </g>
    <g id="freepik--Lines--inject-29" transform="translate(181.998 45.792)">
      <path id="Path_520" data-name="Path 520" d="M417.45,132.371a37.942,37.942,0,0,1,.18-4.716,38.806,38.806,0,0,1,.694-4.665,37.989,37.989,0,0,1-.18,4.716,38.806,38.806,0,0,1-.694,4.665Z" transform="translate(-402.242 -122.99)" fill="#263238"/>
      <path id="Path_521" data-name="Path 521" d="M408.349,134.193a38.472,38.472,0,0,1-2.2-4.176,37.546,37.546,0,0,1-1.733-4.387,42.969,42.969,0,0,1,3.929,8.563Z" transform="translate(-395.918 -124.272)" fill="#263238"/>
      <path id="Path_522" data-name="Path 522" d="M400.659,140.742a38.9,38.9,0,0,1-3.991-2.515,37.5,37.5,0,0,1-3.7-2.937,43.37,43.37,0,0,1,7.689,5.452Z" transform="translate(-390.357 -128.964)" fill="#263238"/>
      <path id="Path_523" data-name="Path 523" d="M397.271,150.244a43.064,43.064,0,0,1-9.381-.874,37.86,37.86,0,0,1,4.711.18,38.887,38.887,0,0,1,4.67.694Z" transform="translate(-387.89 -135.797)" fill="#263238"/>
      <path id="Path_524" data-name="Path 524" d="M425.52,157.75a43.578,43.578,0,0,1,7.715,5.452,37.214,37.214,0,0,1-3.991-2.515A38.745,38.745,0,0,1,425.52,157.75Z" transform="translate(-406.167 -139.873)" fill="#263238"/>
      <path id="Path_525" data-name="Path 525" d="M427.31,152.554a43.151,43.151,0,0,1,9.386.874,37.907,37.907,0,0,1-4.716-.18A38.889,38.889,0,0,1,427.31,152.554Z" transform="translate(-407.036 -137.346)" fill="#263238"/>
      <path id="Path_526" data-name="Path 526" d="M426.26,143.449a38.47,38.47,0,0,1,4.176-2.2,37.543,37.543,0,0,1,4.387-1.733,38.917,38.917,0,0,1-4.171,2.2,37.97,37.97,0,0,1-4.392,1.728Z" transform="translate(-406.526 -131.018)" fill="#263238"/>
      <path id="Path_527" data-name="Path 527" d="M422.65,135.739a38.064,38.064,0,0,1,2.52-3.991,36.7,36.7,0,0,1,2.932-3.7,43.375,43.375,0,0,1-5.452,7.715Z" transform="translate(-404.773 -125.448)" fill="#263238"/>
    </g>
    <g id="freepik--Character--inject-29" transform="translate(7.665 39.629)">
      <path id="Path_528" data-name="Path 528" d="M130.53,295.006c-.571.725-48.592,2.88-50.875,2.222a1.543,1.543,0,0,1-.319-.134c-2.829-1.327-14.966-10.492-16.9-14.354-1.543-3.086,7.607-19.976,10.8-22.871,2.124-1.918,6.064-2.674,6.064-2.674s11.119-32.093,17.975-38.81c1.723-1.687,31.5-2.345,36.819.082,2.278,1.029,7.817,6.686,7.972,7.715h0C142.195,227.668,131.091,294.271,130.53,295.006Z" transform="translate(-55.402 -162.426)" fill="#37474f"/>
      <path id="Path_529" data-name="Path 529" d="M147.294,303.34c-.571.725-48.587,2.88-50.875,2.222a1.791,1.791,0,0,1-.319-.134c4.629-12.441,26.23-70.815,26.847-71.191s29.069-.206,35.883.288C158.974,236,147.87,302.6,147.294,303.34Z" transform="translate(-71.837 -170.76)" fill="#263238"/>
      <path id="Path_530" data-name="Path 530" d="M160.905,215.832c-.478-.453-.8-6.974.087-8.275.987-1.455,12.405-.735,13.079.514s1,7.761.653,8-2.248.458-2.5.041-.242-5.807-.442-6.095-8.2-.8-8.476-.391.4,5.863.077,6.1S161.373,216.275,160.905,215.832Z" transform="translate(-103.083 -157.508)" fill="#37474f"/>
      <rect id="Rectangle_5585" data-name="Rectangle 5585" width="3.893" height="4.48" transform="translate(30.716 86.303) rotate(25.11)" fill="#dbdbdb"/>
      <rect id="Rectangle_5586" data-name="Rectangle 5586" width="6.347" height="5.112" transform="translate(28.324 88.525) rotate(25.11)" fill="#c7c7c7"/>
      <path id="Path_531" data-name="Path 531" d="M91.131,301.372,81.2,322.561l-13.66-6.408,9.926-21.184c1.97-4.192,6.12-6.172,10.286-4.228S93.1,297.2,91.131,301.372Z" transform="translate(-57.965 -197.937)" fill="#80b314"/>
      <path id="Path_532" data-name="Path 532" d="M91.131,301.372,81.2,322.561l-13.66-6.408,9.926-21.184c1.97-4.192,6.12-6.172,10.286-4.228S93.1,297.2,91.131,301.372Z" transform="translate(-57.965 -197.937)" opacity="0.1"/>
      <path id="Path_533" data-name="Path 533" d="M102.939,293.059a.591.591,0,1,1-.275-.789A.591.591,0,0,1,102.939,293.059Z" transform="translate(-74.613 -199.016)" fill="#fff"/>
      <path id="Path_534" data-name="Path 534" d="M111.8,308.56a.586.586,0,1,1,.021-.45A.586.586,0,0,1,111.8,308.56Z" transform="translate(-78.917 -206.55)" fill="#fff"/>
      <path id="Path_535" data-name="Path 535" d="M99.558,304.086a.585.585,0,1,1-.267-.782.586.586,0,0,1,.267.782Z" transform="translate(-72.976 -204.375)" fill="#fff"/>
      <path id="Path_536" data-name="Path 536" d="M95.944,314.463a.586.586,0,1,1-.283-.779A.581.581,0,0,1,95.944,314.463Z" transform="translate(-71.218 -209.418)" fill="#fff"/>
      <path id="Path_537" data-name="Path 537" d="M80.408,319.781a.581.581,0,0,1-.782.283.589.589,0,0,1,.514-1.06.576.576,0,0,1,.267.777Z" transform="translate(-63.674 -212)" fill="#fff"/>
      <path id="Path_538" data-name="Path 538" d="M83.679,310.089a.591.591,0,1,1-.275-.789A.591.591,0,0,1,83.679,310.089Z" transform="translate(-65.258 -207.287)" fill="#fff"/>
      <path id="Path_539" data-name="Path 539" d="M88.509,300.459a.591.591,0,1,1-.275-.789.591.591,0,0,1,.275.789Z" transform="translate(-67.604 -202.61)" fill="#fff"/>
      <path id="Path_540" data-name="Path 540" d="M95.794,296.614a.586.586,0,1,1-.283-.777A.586.586,0,0,1,95.794,296.614Z" transform="translate(-71.145 -200.75)" fill="#fff"/>
      <path id="Path_541" data-name="Path 541" d="M92.025,307.36a.586.586,0,1,1,.021-.45.586.586,0,0,1-.021.45Z" transform="translate(-69.315 -205.967)" fill="#fff"/>
      <path id="Path_542" data-name="Path 542" d="M107.385,300.94a.586.586,0,1,1,.021-.45.586.586,0,0,1-.021.45Z" transform="translate(-76.776 -202.849)" fill="#fff"/>
      <path id="Path_543" data-name="Path 543" d="M103.945,311.58a.586.586,0,1,1,.021-.45A.586.586,0,0,1,103.945,311.58Z" transform="translate(-75.105 -208.017)" fill="#fff"/>
      <path id="Path_544" data-name="Path 544" d="M88.065,317.21a.586.586,0,1,1,.021-.45.586.586,0,0,1-.021.45Z" transform="translate(-67.392 -210.751)" fill="#fff"/>
      <path id="Path_545" data-name="Path 545" d="M95.385,330.65a.586.586,0,1,1,.021-.45A.586.586,0,0,1,95.385,330.65Z" transform="translate(-70.947 -217.279)" fill="#fff"/>
      <path id="Path_546" data-name="Path 546" d="M91.575,338.36a.586.586,0,1,1,.021-.45.586.586,0,0,1-.021.45Z" transform="translate(-69.097 -221.024)" fill="#fff"/>
      <path id="Path_547" data-name="Path 547" d="M84.764,325.9a.586.586,0,1,1-.283-.779A.586.586,0,0,1,84.764,325.9Z" transform="translate(-65.788 -214.975)" fill="#fff"/>
      <path id="Path_548" data-name="Path 548" d="M74.029,335.659a.591.591,0,1,1-.275-.789.591.591,0,0,1,.275.789Z" transform="translate(-60.571 -219.706)" fill="#fff"/>
      <path id="Path_549" data-name="Path 549" d="M92.305,323.75a.586.586,0,1,1,.021-.45.586.586,0,0,1-.021.45Z" transform="translate(-69.451 -213.928)" fill="#fff"/>
      <path id="Path_550" data-name="Path 550" d="M88.5,332.21a.586.586,0,1,1,.021-.45A.586.586,0,0,1,88.5,332.21Z" transform="translate(-67.601 -218.037)" fill="#fff"/>
      <path id="Path_551" data-name="Path 551" d="M84.565,340.6a.586.586,0,1,1,.021-.45A.586.586,0,0,1,84.565,340.6Z" transform="translate(-65.692 -222.112)" fill="#fff"/>
      <path id="Path_552" data-name="Path 552" d="M88.016,346.946a.586.586,0,1,1-.267-.782A.591.591,0,0,1,88.016,346.946Z" transform="translate(-67.368 -225.192)" fill="#fff"/>
      <path id="Path_553" data-name="Path 553" d="M77.6,327.709a.591.591,0,1,1-.275-.789A.591.591,0,0,1,77.6,327.709Z" transform="translate(-62.305 -215.845)" fill="#fff"/>
      <path id="Path_554" data-name="Path 554" d="M81.035,333.87a.586.586,0,1,1,.021-.45.586.586,0,0,1-.021.45Z" transform="translate(-63.978 -218.843)" fill="#fff"/>
      <path id="Path_555" data-name="Path 555" d="M94.755,345.38a.586.586,0,1,1-.283-.782.586.586,0,0,1,.283.782Z" transform="translate(-70.641 -224.433)" fill="#fff"/>
      <path id="Path_556" data-name="Path 556" d="M77.455,342.1a.586.586,0,1,1,.021-.45A.586.586,0,0,1,77.455,342.1Z" transform="translate(-62.239 -222.84)" fill="#fff"/>
      <path id="Path_557" data-name="Path 557" d="M102.645,328.95a.586.586,0,1,1,.021-.45A.586.586,0,0,1,102.645,328.95Z" transform="translate(-74.473 -216.453)" fill="#fff"/>
      <path id="Path_558" data-name="Path 558" d="M98.845,337.07a.586.586,0,1,1,.021-.45.586.586,0,0,1-.021.45Z" transform="translate(-72.628 -220.397)" fill="#fff"/>
      <path id="Path_559" data-name="Path 559" d="M99.575,322.27a.586.586,0,1,1,.021-.45A.586.586,0,0,1,99.575,322.27Z" transform="translate(-72.982 -213.209)" fill="#fff"/>
      <path id="Path_560" data-name="Path 560" d="M107.6,319.74a.586.586,0,1,1,.021-.45.586.586,0,0,1-.021.45Z" transform="translate(-76.878 -211.98)" fill="#fff"/>
      <path id="Path_561" data-name="Path 561" d="M64.42,324.232C65.573,329.89,78.142,335.989,79,335.964s9.2-20.675,9.2-20.675S78.034,311.945,73.457,306C73.457,306,64.06,322.458,64.42,324.232Z" transform="translate(-56.445 -205.713)" fill="#455a64"/>
      <path id="Path_562" data-name="Path 562" d="M198.3,399.889H149.656c-2.962-11.315-5.683-21.3-7.416-27.6-1.09-3.965-1.79-6.48-1.924-6.953a.852.852,0,0,0-.026-.082h50.593l1.543,7.092c.612,2.87,1.389,6.491,2.284,10.631.072.36.154.725.231,1.106C195.959,388.821,197.106,394.2,198.3,399.889Z" transform="translate(-93.299 -234.49)" fill="#455a64"/>
      <path id="Path_563" data-name="Path 563" d="M164.9,405.63h-.915q-3.734-13.758-7.288-27.567l-.2-.777c-.046-.211.267-.309.329-.1.087.293.175.581.257.874C159.777,387.228,162.358,396.424,164.9,405.63Z" transform="translate(-101.173 -240.232)" fill="#263238"/>
      <path id="Path_564" data-name="Path 564" d="M169.209,365.4a48.415,48.415,0,0,1-1.728,7.092c-.566,1.841-1.25,3.832-2.021,5.884-.165.468-.35.921-.514,1.383-2.453,6.249-5.657,12.616-8.97,15.64h-.026a8.231,8.231,0,0,1-1.265.993l-2.818,1.744a.092.092,0,0,1,0,.041h0c0,.17-.129.782-.288,1.769H104.092c-1.214-11,1.317-21.282,3.523-27.731a57.493,57.493,0,0,1,2.757-6.825Z" transform="translate(-75.565 -234.558)" fill="#455a64"/>
      <path id="Path_565" data-name="Path 565" d="M203.127,418.138a90.975,90.975,0,0,1-9.206,4.4c-.838.36-1.677.715-2.53,1.059h0c-.051,0-.1.046-.154.062q-1.1.458-2.206.879c-.72.278-1.435.566-2.165.833h-1.6c1.106-.555,2.263-1.029,3.389-1.543q2.345-1.029,4.706-2.057c.715-.309,1.43-.622,2.14-.941h.026c2.453-1.09,4.9-2.181,7.421-3.086C203.194,417.624,203.359,418,203.127,418.138Z" transform="translate(-115.141 -259.976)" fill="#263238"/>
      <path id="Path_566" data-name="Path 566" d="M196.647,429.151c0,.37-.031.982-.1,1.738h-.514c.165-.71.314-1.291.458-1.713a.242.242,0,0,1,0-.046.072.072,0,0,1,.139,0h0S196.647,429.136,196.647,429.151Z" transform="translate(-120.372 -265.492)" fill="#263238"/>
      <path id="Path_567" data-name="Path 567" d="M119.431,370.935c-.643,1.286-1.224,2.572-1.764,3.919a52.82,52.82,0,0,0-3.6,25.438c.087.751.2,1.5.309,2.242h-.823a52.79,52.79,0,0,1-.566-6.557,50,50,0,0,1,4.145-21.133c.607-1.383,1.281-2.741,2.016-4.063a.161.161,0,1,1,.283.154Z" transform="translate(-80.032 -237.136)" fill="#263238"/>
      <path id="Path_568" data-name="Path 568" d="M194.9,385.956c.046-1.831.175-3.657.267-5.483.211-4.31.381-8.646.782-12.94a.134.134,0,1,1,.267,0c.051,3.333-.077,6.686-.144,10.014-.036,1.666-.082,3.338-.129,5a47.762,47.762,0,0,0-.031,4.778c.087,1.2.35,3.538,1.918,3.682,1.481.139,2.649-1.455,3.019-2.623a45.86,45.86,0,0,0,1.574-9.258c.18-1.826.391-9.258.293-11.119,0-.118.175-.113.185,0,.1,1.882.36,3.754.422,5.657s.067,3.765-.051,5.657c-.118,1.8-.267,3.6-.54,5.4a19.452,19.452,0,0,1-1.157,4.768,4.225,4.225,0,0,1-2.9,2.705,3.766,3.766,0,0,1-.514.051c0,.386-.072.777-.1,1.157-.041.607-.118,1.2-.2,1.805a13.537,13.537,0,0,1-.365,1.749,6.558,6.558,0,0,1-.617,1.666.093.093,0,0,1-.17-.046,8.07,8.07,0,0,1,.144-1.723c.082-.586.165-1.183.283-1.759s.226-1.147.345-1.718c.077-.381.129-.777.2-1.162a2.813,2.813,0,0,1-2.093-1.651A10.236,10.236,0,0,1,194.9,385.956Z" transform="translate(-119.82 -235.535)" fill="#263238"/>
      <path id="Path_569" data-name="Path 569" d="M192,235.615c6.136,7.689,30.2,34.973,43.567,37.519,9.006,1.723,37.935-13,44.272-18.335,2.572-2.181-11.9-23.766-15.429-22.9-3.826.941-24.646,14.781-27.351,14.622s-24.013-12.138-36.938-17.44C192.355,225.874,188.544,231.29,192,235.615Z" transform="translate(-117.792 -167.884)" fill="#f7a9a0"/>
      <path id="Path_570" data-name="Path 570" d="M333.037,246.836c5.565-2.145,22.439-13.979,25.242-17.054s10.23-12.493,8.09-14.879-4.526.2-4.526.2,2.813-4.86.139-6.686c-2.134-1.455-5.7,2.006-5.7,2.006s2.8-5.488-.082-6.953c-2.628-1.337-5.524,3.364-5.524,3.364s1.877-4.829-.9-5.627c-3.343-.967-6.6,7.391-9.947,10.554-.761.715-23.221,11.737-23.221,11.737Z" transform="translate(-178.937 -154.779)" fill="#f7a9a0"/>
      <path id="Path_571" data-name="Path 571" d="M373.342,211.585c-3.086,6.012-4.526,8.409-9.772,12.256-.1.072,0,.242.1.175,5.462-3.3,7.385-6.023,9.957-12.343C373.768,211.379,373.486,211.307,373.342,211.585Z" transform="translate(-201.724 -159.772)" fill="#263238"/>
      <path id="Path_572" data-name="Path 572" d="M383.61,219.021c-3.06,6.172-5.4,8.491-10.579,12.919a.087.087,0,0,0,.1.139c5.447-3.924,8.45-6.449,10.7-13.007C383.934,218.779,383.749,218.743,383.61,219.021Z" transform="translate(-206.324 -163.376)" fill="#263238"/>
      <path id="Path_573" data-name="Path 573" d="M393.282,228.511c-3.394,5.75-5.765,8.579-11.351,12.23a.124.124,0,0,0,.123.216c6.053-3.173,9.047-6.686,11.392-12.343C393.606,228.249,393.492,228.135,393.282,228.511Z" transform="translate(-210.632 -167.965)" fill="#263238"/>
      <path id="Path_574" data-name="Path 574" d="M391.931,207.823c-14.766,4.31-29.316,8.625-43.459,12.935C340,201.729,338.751,182.7,332.95,163.67q22.18-6.473,43.516-12.94C384.921,169.754,386.145,188.789,391.931,207.823Z" transform="translate(-186.873 -130.3)" fill="#fff"/>
      <path id="Path_575" data-name="Path 575" d="M391.63,207.6q-11.042,3.281-21.879,6.552t-21.513,6.537l-.144.046-.072-.154c-8.507-19.029-9.772-38.059-15.62-57.088-.026-.082-.046-.165-.072-.247l.242-.072q22.18-6.434,43.516-12.858l.17-.051.077.175c4.217,9.54,6.619,19.081,8.692,28.621S388.78,198.086,391.63,207.6Zm0,0c-2.937-9.52-4.737-19.029-6.866-28.565s-4.536-18.993-8.743-28.488l.242.123c-14.179,4.336-28.729,8.676-43.516,13.012l.17-.319c5.776,19.029,6.995,38.085,15.429,57.124l-.211-.108q10.615-3.2,21.493-6.4T391.63,207.6Z" transform="translate(-186.572 -130.072)" fill="#263238"/>
      <path id="Path_576" data-name="Path 576" d="M346.54,185.2q12.513-3.6,24.877-7.2c.144.489.288.977.427,1.466q-12.39,3.6-24.949,7.2C346.777,186.2,346.658,185.715,346.54,185.2Z" transform="translate(-193.473 -143.545)" fill="#dbdbdb"/>
      <path id="Path_577" data-name="Path 577" d="M348.26,192.44q12.575-3.6,25.037-7.2l.386,1.466q-12.477,3.6-25.088,7.2C348.486,193.417,348.373,192.929,348.26,192.44Z" transform="translate(-194.309 -147.061)" fill="#dbdbdb"/>
      <path id="Path_578" data-name="Path 578" d="M349.88,199.64q12.621-3.6,25.155-7.2c.118.514.242.977.355,1.466q-12.544,3.6-25.2,7.2C350.1,200.617,349.988,200.129,349.88,199.64Z" transform="translate(-195.095 -150.558)" fill="#dbdbdb"/>
      <path id="Path_579" data-name="Path 579" d="M351.44,203.678q18.515-5.267,36.917-10.538l.355,1.471c-12.261,3.508-24.61,7.02-36.958,10.533C351.646,204.655,351.543,204.167,351.44,203.678Z" transform="translate(-195.853 -150.898)" fill="#dbdbdb"/>
      <path id="Path_580" data-name="Path 580" d="M353,210.878l37-10.538c.113.489.226.977.334,1.466q-18.469,5.272-37.03,10.538Q353.131,211.611,353,210.878Z" transform="translate(-196.611 -154.395)" fill="#dbdbdb"/>
      <path id="Path_581" data-name="Path 581" d="M354.51,218.053l37.03-10.533c.108.514.216.977.319,1.466q-18.515,5.269-37.03,10.533C354.721,219.041,354.618,218.567,354.51,218.053Z" transform="translate(-197.344 -157.882)" fill="#dbdbdb"/>
      <path id="Path_582" data-name="Path 582" d="M356.1,225.268Q374.559,220,393.13,214.73c.108.514.211.977.314,1.466q-18.515,5.267-37,10.538C356.321,226.245,356.208,225.757,356.1,225.268Z" transform="translate(-198.116 -161.384)" fill="#dbdbdb"/>
      <path id="Path_583" data-name="Path 583" d="M357.77,232.463c12.256-3.513,24.6-7.02,36.948-10.533.108.489.211.977.314,1.466q-18.515,5.272-36.9,10.533C358.007,233.44,357.888,232.952,357.77,232.463Z" transform="translate(-198.928 -164.881)" fill="#dbdbdb"/>
      <path id="Path_584" data-name="Path 584" d="M359.57,239.658q18.284-5.272,36.819-10.538c.108.489.211.977.319,1.466q-18.484,5.272-36.747,10.538C359.827,240.635,359.7,240.147,359.57,239.658Z" transform="translate(-199.802 -168.373)" fill="#dbdbdb"/>
      <path id="Path_585" data-name="Path 585" d="M361.53,246.853q18.145-5.261,36.634-10.533c.113.514.221.977.339,1.466-12.282,3.513-24.491,7.025-36.547,10.538C361.813,247.83,361.669,247.342,361.53,246.853Z" transform="translate(-200.754 -171.87)" fill="#dbdbdb"/>
      <path id="Path_586" data-name="Path 586" d="M363.68,254.048q18-5.267,36.4-10.538c.118.514.237.977.36,1.466q-18.33,5.272-36.284,10.538C363.994,255.025,363.845,254.562,363.68,254.048Z" transform="translate(-201.798 -175.362)" fill="#dbdbdb"/>
      <path id="Path_587" data-name="Path 587" d="M366.07,261.248q17.805-5.267,36.1-10.538c.129.489.257.977.391,1.466q-18.206,5.267-35.971,10.538Z" transform="translate(-202.959 -178.859)" fill="#dbdbdb"/>
      <path id="Path_590" data-name="Path 590" d="M394.12,165.633a10.832,10.832,0,0,0-2.227,2.217,9.684,9.684,0,0,0-1.852,5.889,7.3,7.3,0,0,0,.658,2.968,6.6,6.6,0,0,0,4.541,3.564,8.056,8.056,0,0,0,5.827-1.481,8.944,8.944,0,0,0,3.857-4.732,6.8,6.8,0,0,0-.751-5.868,7.123,7.123,0,0,0-2.33-2.057,7.422,7.422,0,0,0-2.993-.962,6.6,6.6,0,0,0-3.086.427,9.145,9.145,0,0,0-2.649,1.671,11.034,11.034,0,0,1,1.162-1.085,8.27,8.27,0,0,1,1.373-.828,6.789,6.789,0,0,1,3.194-.679,8.131,8.131,0,0,1,5.987,3.086,7.03,7.03,0,0,1,1.291,3.2,7.9,7.9,0,0,1-.262,3.41,9.911,9.911,0,0,1-4.264,5.308,11.2,11.2,0,0,1-3.148,1.435,7.447,7.447,0,0,1-3.446.149,6.8,6.8,0,0,1-3.024-1.492,7.715,7.715,0,0,1-2.016-2.664,8.98,8.98,0,0,1,.036-6.593A9.592,9.592,0,0,1,394.12,165.633Z" transform="translate(-214.268 -137.072)" fill="#80b314"/>
      <path id="Path_591" data-name="Path 591" d="M411.342,176.93q-2.578-3.538-5.262-7.061l2.354-1.739q2.7,3.523,5.307,7.061Z" transform="translate(-226.302 -136.751)" fill="#80b314"/>
      <path id="Path_592" data-name="Path 592" d="M407.594,175.946l-1.784-2.459,6.746-4.857c.615.825,1.214,1.649,1.829,2.459Z" transform="translate(-226.436 -136.501)" fill="#80b314"/>
      <path id="Path_593" data-name="Path 593" d="M316.61,225.942s5.467-5.6,7.925-8.383,8.332-11.613,11.521-11.4c3.6.237,1,9.54-3.358,14.539,0,0,5.786,9.227,1.831,14.231-.859,1.08-7.092,4.505-8.64,4.186Z" transform="translate(-178.937 -157.218)" fill="#f7a9a0"/>
      <path id="Path_594" data-name="Path 594" d="M347.181,235.059c2.381,3.508,4.037,8.851,2.33,12.724a.1.1,0,0,0,.17.093c2.392-3.9.514-10.106-1.78-13.115C347.453,234.169,346.564,234.169,347.181,235.059Z" transform="translate(-193.682 -170.913)" fill="#263238"/>
      <path id="Path_595" data-name="Path 595" d="M254.769,236.253,271.2,259.587a7.262,7.262,0,0,1-4.51,6.959c-4.9,2.145-25.175,9.458-33.2,6.748s-30.93-22.45-40.81-35.57,4.721-10.512,7.5-9.258,35.446,16.648,36.608,16.622,8.743-5.791,12.343-7.581S254.769,236.253,254.769,236.253Z" transform="translate(-117.095 -167.529)" fill="#f2f2f2"/>
      <path id="Path_596" data-name="Path 596" d="M246.9,280.7c-4.629.849-8.913,1.126-11.706.18-8.033-2.716-30.936-22.444-40.816-35.575-.627-.828-1.152-1.6-1.594-2.3Z" transform="translate(-118.793 -175.12)" opacity="0.1"/>
      <path id="Path_597" data-name="Path 597" d="M321.519,276.853c-1.507-1.846-2.762-3.9-4.073-5.873s-2.572-3.9-3.842-5.863c-2.572-3.955-5.23-7.884-7.529-11.989a.087.087,0,0,1,.144-.093c2.968,3.739,5.555,7.781,8.157,11.757q1.96,2.988,3.832,6.028a61.784,61.784,0,0,1,3.472,5.961C321.725,276.879,321.581,276.93,321.519,276.853Z" transform="translate(-173.817 -179.976)" fill="#263238"/>
      <g id="Group_65079" data-name="Group 65079" transform="translate(122.462 71.486)" opacity="0.1">
        <path id="Path_598" data-name="Path 598" d="M311.775,280.226l-1.857.633a13.888,13.888,0,0,1-.139-2.057c0-1.3.1-2.572.087-3.811a18.459,18.459,0,0,0-.36-3.693,12.786,12.786,0,0,0-1.24-3.415c-.139-.267-.3-.514-.447-.771s-.319-.473-.489-.71c-.365-.468-.746-.951-1.142-1.425l-2.366-2.875c-.8-.967-1.594-1.939-2.376-2.932s-1.543-2.021-2.248-3.086a22.2,22.2,0,0,1-1.888-3.477,12.437,12.437,0,0,1-.463-1.358c.663-.437,1.317-.859,1.934-1.25a15.472,15.472,0,0,0,.7,1.625,31.069,31.069,0,0,0,1.877,3.014c1.378,2.006,2.829,4.027,4.284,6.069.725,1.029,1.471,2.057,2.15,3.122.339.54.679,1.085.982,1.677.149.3.3.591.432.921a9.373,9.373,0,0,1,.324.946,42.927,42.927,0,0,1,1.168,7.576A30.154,30.154,0,0,0,311.775,280.226Z" transform="translate(-291.801 -250)"/>
        <path id="Path_599" data-name="Path 599" d="M300.517,285.9c-.514.144-1,.283-1.507.417a23.969,23.969,0,0,1-.7-6.3v-3.209c0-.514,0-1.054-.041-1.574a9.838,9.838,0,0,0-.149-1.5,1.725,1.725,0,0,0-.087-.329l-.129-.35-.154-.339c-.057-.113-.123-.221-.18-.334a6.815,6.815,0,0,0-.926-1.229,11.459,11.459,0,0,0-2.494-1.918c-.458-.278-.931-.514-1.409-.766l-1.445-.735a9.025,9.025,0,0,1-2.752-1.985,4.9,4.9,0,0,1-.514-.746c-.077-.134-.144-.278-.211-.417l-.159-.411a10.256,10.256,0,0,1-.417-1.666,16.731,16.731,0,0,1-.2-3.312c0-.324.031-.648.057-.972l1.029-.679c0,.55,0,1.1.046,1.641a21.557,21.557,0,0,0,.35,3.086,10.581,10.581,0,0,0,.4,1.44l.134.339c.051.1.087.2.144.3a4.728,4.728,0,0,0,.365.581,11.139,11.139,0,0,0,2.181,2.088c.838.643,1.749,1.224,2.649,1.816a21.371,21.371,0,0,1,2.649,1.9,8.67,8.67,0,0,1,1.167,1.209,7.767,7.767,0,0,1,.489.7l.211.375a3.41,3.41,0,0,1,.18.427,8.788,8.788,0,0,1,.375,1.666c.087.545.134,1.09.18,1.63.087,1.08.139,2.15.211,3.209s.149,2.119.252,3.158a20.755,20.755,0,0,0,.4,2.782Z" transform="translate(-287.033 -253.662)"/>
      </g>
      <path id="Path_600" data-name="Path 600" d="M106.147,335.87c.057.091,78.2-4.355,78.707-4.94.235-.272,1.248-5.686.052-13.2-3.59-22.541-14.349-68.585-23.836-88.067-2.37-4.878-13.055-12.048-20.807-2.836-15.717,18.674-28.056,66.195-32.918,92.3C104.962,331.877,105.827,335.326,106.147,335.87Z" transform="translate(-79.454 -165.095)" fill="#f2f2f2"/>
      <path id="Path_603" data-name="Path 603" d="M115.475,230.263c-22.912,9.715-40.7,18.176-38.121,26.981,1.029,3.456,6.995,12.781,14.678,12.77,6.038,0,16.8-9.69,29.069-26.636C127.453,234.609,129.942,224.123,115.475,230.263Z" transform="translate(-62.611 -168.035)" fill="#f2f2f2"/>
      <path id="Path_604" data-name="Path 604" d="M140.691,262.611c-.977.807-1.949,1.635-2.9,2.479l.612-.71c1.641-1.944,3.261-3.9,4.881-5.863.031-.041-.036-.093-.072-.051-3.086,3.281-6.172,6.532-9.294,9.8s-11.263,11.556-13.243,13.182a.044.044,0,0,0,.051.072c1.79-1.4,6.815-5.606,8.419-7.175q3.636-3.559,6.989-7.344a58.563,58.563,0,0,0,4.665-4.289C140.856,262.657,140.758,262.554,140.691,262.611Z" transform="translate(-83.764 -182.619)" fill="#263238"/>
      <path id="Path_605" data-name="Path 605" d="M75.6,242.031c-10.019-4.114-16.509-34.5-18.968-54.959-.468-3.893,30.308-7.643,30.344-3.451C87.1,207.547,86.578,246.526,75.6,242.031Z" transform="translate(-52.666 -145.381)" fill="#f7a9a0"/>
      <path id="Path_606" data-name="Path 606" d="M49.119,145.981c.18,6.527,5.771,22.866,8.347,25.535s22.115-6.686,23.19-10.286,2-25.006-2.3-30.087S48.929,139.223,49.119,145.981Z" transform="translate(-49.018 -120.233)" fill="#f7a9a0"/>
      <path id="Path_607" data-name="Path 607" d="M83.313,131.061c-1.708,3.009-4.274-.725-4.274-.725s2.4,6.264-.555,8.687c-2.86,2.325-5.807-2.294-6.017-2.623.123.334,2.181,6.172-1.029,8.275-3.353,2.206-5.513-2.937-5.657-3.271,0,.355.19,4.994-2.628,6.053-4.84,1.821-5.6-10.039-8.856-12.673,0,0-5.087,2.366-5.267,2.479,0,0-.951-8.62,2.839-12.817a3.6,3.6,0,0,1,4.454-.782s-.7-3.6,1.779-5.354c1.275-.9,3.852.35,3.852.35s-.447-2.906,1.857-4.33c1.841-1.142,4.114.288,4.114.288s.864-2.988,3.122-3.549C75.609,109.923,86.96,124.6,83.313,131.061Z" transform="translate(-48.923 -111.006)" fill="#f7a9a0"/>
      <path id="Path_608" data-name="Path 608" d="M86.654,118.257a.051.051,0,0,1,.067-.072,32.187,32.187,0,0,1,10.8,15.8c.057.2-.247.381-.35.17A65.739,65.739,0,0,0,86.654,118.257Z" transform="translate(-67.245 -114.491)" fill="#263238"/>
      <path id="Path_609" data-name="Path 609" d="M74.168,125.575c-.046-.051.041-.134.1-.087,5.04,4.063,9.587,10.734,10.708,18,.041.247-.175.514-.242.226C83.626,138.931,78.231,129.987,74.168,125.575Z" transform="translate(-61.178 -118.033)" fill="#263238"/>
      <path id="Path_610" data-name="Path 610" d="M72.849,153.9C71.5,147,68.077,141.215,63.705,135.784c-.057-.072.051-.144.113-.1,2.865,2.057,5.287,5.827,6.928,8.908a18.577,18.577,0,0,1,2.361,9.247C73.107,153.985,72.875,154.052,72.849,153.9Z" transform="translate(-56.095 -122.986)" fill="#263238"/>
      <path id="Path_611" data-name="Path 611" d="M84.113,148.56a21.02,21.02,0,0,1,.7,3.8,7.046,7.046,0,0,1-.514,3.667,2.314,2.314,0,0,1-1.219,1.142,3.389,3.389,0,0,1-1.7.2,4.114,4.114,0,0,1-2.705-2.006l-1.491-2.412.566,2.782a11.67,11.67,0,0,1,.17,3.754,4.168,4.168,0,0,1-1.574,3.009,2.376,2.376,0,0,1-2.983-.072,7.144,7.144,0,0,1-2.006-2.978l-1.229-3.127.134,3.343a10.718,10.718,0,0,1-.237,2.772,4.5,4.5,0,0,1-1.167,2.314,2.139,2.139,0,0,1-2.2.473,4.732,4.732,0,0,1-1.888-1.846,37.149,37.149,0,0,1-2.5-5.246c-.386-.905-.777-1.81-1.209-2.7a7.072,7.072,0,0,0-1.687-2.422,7.576,7.576,0,0,1,1.435,2.53c.36.91.679,1.841,1,2.772a31.439,31.439,0,0,0,2.309,5.493,5.575,5.575,0,0,0,2.2,2.289,3.029,3.029,0,0,0,3.271-.576,5.488,5.488,0,0,0,1.543-2.834,11.937,11.937,0,0,0,.309-3.086l-1.09.216a8.229,8.229,0,0,0,2.34,3.544,3.436,3.436,0,0,0,2.181.807,3.914,3.914,0,0,0,2.181-.73,5.233,5.233,0,0,0,1.99-3.806,12.518,12.518,0,0,0-.252-4.114l-.931.375a4.942,4.942,0,0,0,3.477,2.3,4.156,4.156,0,0,0,2.093-.355,3.029,3.029,0,0,0,1.491-1.543,7.267,7.267,0,0,0,.267-3.976A17.446,17.446,0,0,0,84.113,148.56Z" transform="translate(-53.997 -129.246)" fill="#263238"/>
      <path id="Path_612" data-name="Path 612" d="M96.61,165.593s15.872-29.058,1.029-29.444c-3.6-.093-17.9,5.709-16.869,8.6,1.337,3.744,7.715,2.6,11.644,1.239,0,0-4.7,8.27.087,13.259a18.926,18.926,0,0,1,4.109,6.341Z" transform="translate(-64.365 -123.217)" fill="#f7a9a0"/>
      <path id="Path_613" data-name="Path 613" d="M98.144,136.11a14.462,14.462,0,0,0-4.2.453,30.991,30.991,0,0,0-4.058,1.229,48.785,48.785,0,0,0-7.715,3.564,8.07,8.07,0,0,0-1.769,1.378,2.937,2.937,0,0,0-.658,1.1,2.057,2.057,0,0,0-.108.7,2.247,2.247,0,0,0,.129.689,3.6,3.6,0,0,0,1.6,1.882,6.722,6.722,0,0,0,2.2.71,12.893,12.893,0,0,0,4.366-.221,29.268,29.268,0,0,0,4.114-1.167l-.581-.715a17.2,17.2,0,0,0-1.219,3.014,15.763,15.763,0,0,0-.633,3.158,11.221,11.221,0,0,0,.2,3.214,8.419,8.419,0,0,0,1.229,2.926,9.392,9.392,0,0,1-.89-2.988,11.449,11.449,0,0,1,.082-3.086,15.269,15.269,0,0,1,.771-2.978,16.649,16.649,0,0,1,1.306-2.767l.653-1.075-1.234.365a31.3,31.3,0,0,1-4,1,12.493,12.493,0,0,1-4,.159c-1.25-.19-2.536-.777-2.885-1.8-.391-.874.8-1.857,1.9-2.572a38.387,38.387,0,0,1,3.6-2.016c1.239-.638,2.489-1.255,3.765-1.805A27.705,27.705,0,0,1,98.144,136.11Z" transform="translate(-63.842 -123.193)" fill="#263238"/>
      <path id="Path_614" data-name="Path 614" d="M86.817,196.85l-32.005,6.995a22.47,22.47,0,0,0-.247,12.369c3.533,11.953,14.071,37.611,22.573,37.03,9.206-.643,11.443-32.715,11.315-48.422C88.36,199.5,86.817,196.85,86.817,196.85Z" transform="translate(-51.29 -152.7)" fill="#f2f2f2"/>
      <g id="Group_65081" data-name="Group 65081" transform="translate(3.012 56.632)" opacity="0.1">
        <path id="Path_615" data-name="Path 615" d="M88.894,221.12c0,.674,0,1.368-.046,2.057a24.858,24.858,0,0,1-2.376,1.065c-.6.237-1.219.453-1.846.638-.319.093-.638.185-.962.257a8.843,8.843,0,0,1-1.029.18,11.315,11.315,0,0,1-4-.329c-1.26-.293-2.464-.694-3.682-.972a18.238,18.238,0,0,0-3.672-.514,12.858,12.858,0,0,0-3.6.406c-.288.072-.581.165-.854.252s-.514.2-.8.314c-.54.247-1.1.514-1.651.777l-3.348,1.635c-1.121.55-2.258,1.1-3.4,1.625-.694.329-1.4.633-2.124.926-.159-.514-.309-.993-.447-1.461-.108-.355-.2-.71-.273-1.065,1.754-.689,3.528-1.409,5.308-2.134,1.167-.463,2.325-.951,3.538-1.363.607-.2,1.214-.406,1.857-.561a10.092,10.092,0,0,1,1.029-.206c.381-.051.658-.077.987-.093a42.905,42.905,0,0,1,7.643.622,26.107,26.107,0,0,0,7.226,0c.514-.093,1.111-.231,1.687-.386s1.147-.334,1.723-.514C86.78,221.927,87.845,221.537,88.894,221.12Z" transform="translate(-54.78 -221.12)"/>
        <path id="Path_616" data-name="Path 616" d="M91.551,232c0,.37-.031.741-.051,1.116-.422.355-.849.7-1.291,1.029a22.024,22.024,0,0,1-2.767,1.8,11.941,11.941,0,0,1-1.543.684,6.872,6.872,0,0,1-1.749.36,23.311,23.311,0,0,1-6.563-.777l-3.127-.72c-.514-.118-1.029-.226-1.543-.329a10.478,10.478,0,0,0-1.491-.206,2.466,2.466,0,0,0-.339,0l-.37.046-.37.072a1.677,1.677,0,0,0-.365.1,6.8,6.8,0,0,0-1.455.648,11.362,11.362,0,0,0-2.448,1.98c-.375.381-.72.787-1.075,1.188l-1.029,1.24A8.918,8.918,0,0,1,61.4,242.44a2.317,2.317,0,0,1-.324.149c-.159-.417-.314-.828-.468-1.239.077-.031.159-.057.237-.093a11.221,11.221,0,0,0,2.536-1.635c.823-.669,1.6-1.414,2.381-2.155a21.427,21.427,0,0,1,2.474-2.134,8.931,8.931,0,0,1,1.44-.854,7.427,7.427,0,0,1,.8-.309l.417-.118c.144-.031.314-.062.458-.077a8.976,8.976,0,0,1,1.708,0c.55.046,1.09.123,1.625.206,1.07.17,2.124.365,3.173.545s2.093.35,3.127.489a20.11,20.11,0,0,0,3.045.231,5.62,5.62,0,0,0,1.409-.206,10.283,10.283,0,0,0,1.4-.514,23.719,23.719,0,0,0,2.757-1.471Q90.589,232.674,91.551,232Z" transform="translate(-57.612 -226.404)"/>
      </g>
      <path id="Path_617" data-name="Path 617" d="M89.342,213.42a293.134,293.134,0,0,1-29.485,6.851.046.046,0,1,1,0-.093c11-3.374,28.405-6.861,29.475-6.948a.1.1,0,0,1,.01.19Z" transform="translate(-54.211 -160.656)" fill="#263238"/>
      <path id="Path_618" data-name="Path 618" d="M115.892,248.371c-.375,3-1.229,7.756-1.918,10.7-.046.185-.093.37-.134.555a17.545,17.545,0,0,1,.293,3.2,36.3,36.3,0,0,1-.237,3.739c0,.051-.087.046-.082,0a24.929,24.929,0,0,0-.031-3.718c-.057-.735-.118-1.476-.18-2.217-.674,2.808-1.383,5.616-2.258,8.368,0,.051-.093,0-.077-.031.658-2.988,1.363-5.971,1.913-8.98s1.81-10.07,2.335-13.058C115.933,244.555,116.01,247.43,115.892,248.371Z" transform="translate(-79.203 -176.577)" fill="#263238"/>
      <path id="Path_619" data-name="Path 619" d="M176.946,207.961c.375,1.1,6.439,7.859,11.541,7.118,1.666-.247.735-9.376.735-9.376l.087-.689,1.193-9.659-13.49-6.825S176.787,207.493,176.946,207.961Z" transform="translate(-111.075 -148.659)" fill="#f7a9a0"/>
      <path id="Path_670" data-name="Path 670" d="M176.949,194.649a32.2,32.2,0,0,0,12.195,2.242c1.761-.078.777-2.953.777-2.953l.092-.217,1.261-3.042L177.02,188.53S176.781,194.5,176.949,194.649Z" transform="translate(-111.075 -130.433)" fill="#f2f2f2"/>
      <path id="Path_620" data-name="Path 620" d="M190.493,195.36l-1.2,9.648-.082.694s.165,1.656.231,3.569c-7.087-.355-10.8-5.292-12.549-8.779.031-5.477.108-11.963.108-11.963Z" transform="translate(-111.076 -148.659)" fill="#263238"/>
      <path id="Path_621" data-name="Path 621" d="M196.435,149.756c4.927,20.253-6.65,25.489-11.022,26.549-3.965.957-17.589,3.718-24.579-15.918s.869-28.328,9.823-31S191.5,129.5,196.435,149.756Z" transform="translate(-101.974 -119.518)" fill="#f7a9a0"/>
      <path id="Path_622" data-name="Path 622" d="M218.321,169.015a13.427,13.427,0,0,1-1.44-.057,2.314,2.314,0,0,1-1.456-.334.741.741,0,0,1-.149-.895,1.821,1.821,0,0,1,1.713-.725,2.69,2.69,0,0,1,1.831.653.792.792,0,0,1-.5,1.358Z" transform="translate(-129.677 -138.196)" fill="#263238"/>
      <path id="Path_623" data-name="Path 623" d="M192.32,174.548a14.267,14.267,0,0,0,1.342-.514,2.314,2.314,0,0,0,1.26-.8.735.735,0,0,0-.154-.895,1.831,1.831,0,0,0-1.857-.118,2.705,2.705,0,0,0-1.512,1.224.792.792,0,0,0,.921,1.1Z" transform="translate(-118.087 -140.643)" fill="#263238"/>
      <path id="Path_624" data-name="Path 624" d="M204.993,204.1c.375.293.761.71,1.275.7a3.754,3.754,0,0,0,1.481-.514.051.051,0,0,1,.067.067,1.908,1.908,0,0,1-1.708.957,1.5,1.5,0,0,1-1.245-1.126A.077.077,0,0,1,204.993,204.1Z" transform="translate(-124.66 -156.21)" fill="#263238"/>
      <path id="Path_625" data-name="Path 625" d="M210.533,197.123a5.842,5.842,0,0,1-1.743,2.376,2.6,2.6,0,0,1-1.5.514c-1.188.031-1.507-.977-1.543-1.9a6.091,6.091,0,0,1,.118-1.471A7.53,7.53,0,0,0,210.533,197.123Z" transform="translate(-125.088 -152.598)" fill="#fff"/>
      <path id="Path_626" data-name="Path 626" d="M212.441,200.13c-.057.077-.118.165-.185.242a4.855,4.855,0,0,1-1.126,0C211.577,200.289,212.015,200.212,212.441,200.13Z" transform="translate(-127.706 -154.293)" fill="#dbdbdb"/>
      <path id="Path_627" data-name="Path 627" d="M207.324,199.837a3.724,3.724,0,0,1-.859-.093,4.114,4.114,0,0,1-.715-.257v-.257a13.375,13.375,0,0,0,1.574.607Z" transform="translate(-125.093 -153.856)" fill="#dbdbdb"/>
      <path id="Path_628" data-name="Path 628" d="M210.455,184.453s.633,2.057.8,3.029c0,.093-.216.175-.545.247h-.041a4.757,4.757,0,0,1-4.845-.993.1.1,0,0,1,.123-.165,7.154,7.154,0,0,0,4.49.514c0-.283-1.214-3.5-1.054-3.5.674,0,1.877.1,2.325.134-.386-1.337-1.661-5.076-2.356-7.514-.041-.149.19-.242.247-.1a67.174,67.174,0,0,1,3.261,8.291C212.924,184.633,210.877,184.55,210.455,184.453Z" transform="translate(-125.107 -142.591)" fill="#263238"/>
      <path id="Path_629" data-name="Path 629" d="M195.449,182.752a2.021,2.021,0,0,1,.3-1.029,1.45,1.45,0,0,1,.977-.6,1.291,1.291,0,0,1,1.09.4,2.3,2.3,0,0,1,.514.91,5.247,5.247,0,0,1,.123.617,2.88,2.88,0,0,1-.113,1.291,4.26,4.26,0,0,0-.175-.931,6.077,6.077,0,0,0-.293-.8c-.252-.514-.633-.941-1.07-.859a1.186,1.186,0,0,0-.864,1.029,9.406,9.406,0,0,0-.113,1.81A4.181,4.181,0,0,1,195.449,182.752Z" transform="translate(-120.089 -145.056)" fill="#263238"/>
      <path id="Path_630" data-name="Path 630" d="M220.049,178a1.975,1.975,0,0,0-.663-.823,1.435,1.435,0,0,0-1.132-.19,1.276,1.276,0,0,0-.859.777,2.2,2.2,0,0,0-.129,1.029,4.115,4.115,0,0,0,.118.617,2.736,2.736,0,0,0,.591,1.152,3.955,3.955,0,0,1-.19-.926,5.3,5.3,0,0,1,0-.854c.031-.581.226-1.106.663-1.193a1.177,1.177,0,0,1,1.193.643,9.442,9.442,0,0,1,.787,1.635A4.038,4.038,0,0,0,220.049,178Z" transform="translate(-130.679 -143.033)" fill="#263238"/>
      <path id="Path_631" data-name="Path 631" d="M152.583,158.671c6.2.067,8.985-7.483,7.2-13.315,0,0,16.54,1.2,16.545-12.014a12.95,12.95,0,0,0,10.986,5.272l2.124,4.747c1.656-.586,3.163-5.472-1.178-8.985,0,0-.669-6.547-5.745-10.2a8.985,8.985,0,0,0-9.731-.782,13.6,13.6,0,0,0-10.039-1.852c-5.976,1.131-8.142,6.789-8.142,6.789s-8.039,2.057-9.078,7.889a11.994,11.994,0,0,0,2.186,9.6s-1.9,2.392-.576,7.257C147.97,156.171,150.726,158.671,152.583,158.671Z" transform="translate(-95.728 -115.987)" fill="#263238"/>
      <path id="Path_632" data-name="Path 632" d="M189.563,142.54a15.353,15.353,0,0,1,.226,3.214,12.918,12.918,0,0,1-.411,3.148,8.327,8.327,0,0,1-3.518,4.953c-1.7,1.24-3.883,1.543-5.961,1.872-1.065.031-2.134.139-3.209.108s-2.15-.113-3.24-.134c1.065.19,2.14.339,3.22.514a25.71,25.71,0,0,0,3.276.1,13.072,13.072,0,0,0,6.331-1.826,8.707,8.707,0,0,0,3.672-5.452,13.094,13.094,0,0,0-.386-6.5Z" transform="translate(-109.405 -126.322)" fill="#263238"/>
      <path id="Path_633" data-name="Path 633" d="M153.09,135a15.151,15.151,0,0,0-5.971,1.671,9.15,9.15,0,0,0-4.336,4.536,10.019,10.019,0,0,0-.591,3.132,9.3,9.3,0,0,0,.339,3.148,8.5,8.5,0,0,0,3.667,5,9.324,9.324,0,0,1-3.086-5.1,10.415,10.415,0,0,1,.391-5.858,7.853,7.853,0,0,1,1.543-2.469,12.108,12.108,0,0,1,2.35-1.841A19.343,19.343,0,0,1,153.09,135Z" transform="translate(-94.214 -122.66)" fill="#263238"/>
      <path id="Path_634" data-name="Path 634" d="M198.79,123.6a15.5,15.5,0,0,1,4.768-1.214,9.391,9.391,0,0,1,4.69.751,9.53,9.53,0,0,1,3.6,3.086,16.973,16.973,0,0,1,2.222,4.4,12.262,12.262,0,0,0-1.738-4.721,8.471,8.471,0,0,0-8.856-4.114A11.711,11.711,0,0,0,198.79,123.6Z" transform="translate(-121.712 -116.173)" fill="#263238"/>
      <path id="Path_635" data-name="Path 635" d="M213.853,150.051a17.157,17.157,0,0,1-5.143-2.386,10.477,10.477,0,0,1-2.057-1.893,12.616,12.616,0,0,1-1.543-2.412,6.974,6.974,0,0,0,1.029,2.757,7.627,7.627,0,0,0,2.057,2.165,9.51,9.51,0,0,0,2.669,1.322A8.785,8.785,0,0,0,213.853,150.051Z" transform="translate(-124.782 -126.72)" fill="#263238"/>
      <path id="Path_636" data-name="Path 636" d="M189.4,185.541a7.283,7.283,0,1,1,6.4-9.551h0a7.3,7.3,0,0,1-4.629,9.2,7.477,7.477,0,0,1-1.774.35Zm-.951-13.557a6.465,6.465,0,0,0-1.543.3,6.305,6.305,0,1,0,1.543-.3Z" transform="translate(-113.365 -140.141)" fill="#00393a"/>
      <path id="Path_637" data-name="Path 637" d="M221.389,179.516c-2.782.2-5.5-2.474-6.208-6.208a8.743,8.743,0,0,1,.566-5.287,4.536,4.536,0,0,1,7.632-1.44,8.7,8.7,0,0,1,2.453,4.711c.746,3.945-1.029,7.607-3.97,8.162A3.724,3.724,0,0,1,221.389,179.516ZM219.7,166.062a.992.992,0,0,0-.365.046,3.893,3.893,0,0,0-2.71,2.335,7.715,7.715,0,0,0-.489,4.69c.648,3.415,3.127,5.827,5.544,5.369s3.842-3.6,3.194-7.02a7.715,7.715,0,0,0-2.165-4.192A4.007,4.007,0,0,0,219.7,166.062Z" transform="translate(-129.587 -137.264)" fill="#00393a"/>
      <path id="Path_638" data-name="Path 638" d="M208.578,180.39l-.638-.514c.771-.941,2.69-2.371,4.464-1.075l-.514.658C210.332,178.291,208.65,180.307,208.578,180.39Z" transform="translate(-126.156 -143.682)" fill="#00393a"/>
      <path id="Path_639" data-name="Path 639" d="M152.417,190.331l-.787-.237c.113-.365,1.121-3.6,2.865-4.233,1.635-.586,12.631-1.615,13.1-1.661l.077.818c-3.153.293-11.634,1.157-12.894,1.615C153.626,187.054,152.684,189.446,152.417,190.331Z" transform="translate(-98.807 -146.556)" fill="#00393a"/>
      <path id="Path_640" data-name="Path 640" d="M163.3,188.376s-5.483-5.74-8.152-3.693,2.134,10.857,5.755,11.608a3.523,3.523,0,0,0,4.382-2.572Z" transform="translate(-100.14 -146.576)" fill="#f7a9a0"/>
      <path id="Path_641" data-name="Path 641" d="M158.647,189.933a.051.051,0,0,0,0,.1c2.572.6,4.156,2.638,5.4,4.814a1.942,1.942,0,0,0-2.957-.087c-.057.057,0,.144.087.118a2.176,2.176,0,0,1,2.474.386A10.529,10.529,0,0,1,165.065,197c.144.2.514,0,.4-.211l-.031-.057C165.019,193.662,161.984,189.738,158.647,189.933Z" transform="translate(-102.198 -149.337)" fill="#263238"/>
      <path id="Path_642" data-name="Path 642" d="M132.56,225.969c-.843-1.029,4.582-4.114,5.992-2.952s8.543,19.256,6.228,38.887-40.311,40.785-41.726,37.848c-.586-1.234.165-4.675,1.09-5.776,1.3-1.543,28.74-18.577,31.45-30.751C138,252.4,134.7,228.643,132.56,225.969Z" transform="translate(-75.114 -165.284)" fill="#455a64"/>
      <path id="Path_643" data-name="Path 643" d="M202.071,227.228c-1.142-2.165,4.737-.422,5.38.746s8.5,19.924,9.859,32.185c.514,4.912,2.443,18.135,2.443,18.135s-5.74-17.738-10.471-32.592a156.751,156.751,0,0,0-7.211-18.474Z" transform="translate(-123.235 -166.954)" fill="#455a64"/>
    </g>
    <g id="freepik--Plant--inject-29" transform="translate(170.565 113.552)">
      <path id="Path_644" data-name="Path 644" d="M418.51,336.689s6.017-21.709,10.8-29.079,13.763-15.47,13.763-15.47S442.883,325.606,418.51,336.689Z" transform="translate(-391.329 -272.905)" fill="#80b314"/>
      <path id="Path_645" data-name="Path 645" d="M419.3,344.614a103.384,103.384,0,0,0,5.477-10.5,73.956,73.956,0,0,1,2.988-11.418c.026-.067.123-.031.108.041-.8,3.425-1.728,6.825-2.572,10.245,2.428-5.282,4.737-10.631,7.627-15.625a33.392,33.392,0,0,1,2.793-6.948c.031-.062.134-.031.1.036a45.11,45.11,0,0,0-1.877,5.215,52.223,52.223,0,0,1,4.572-6.352c.108-.123.319,0,.211.149-3.868,4.963-6.537,10.605-9.078,16.319a86.982,86.982,0,0,0,7.55-9.484c0-.031.072,0,.051.036a77.707,77.707,0,0,1-8.085,10.538c-1.852,4.186-3.672,8.388-5.879,12.374,4.413-3.749,7.807-8.6,11.166-13.279a.1.1,0,0,1,.165.113c-3.364,5.143-6.84,9.972-11.675,13.773a52.8,52.8,0,0,1-3.23,5.071.259.259,0,0,1-.417-.309Z" transform="translate(-391.689 -281.221)" fill="#263238"/>
      <path id="Path_646" data-name="Path 646" d="M408.51,320.479s10.8-20.017,7.673-39.422-6.506-26.317-6.506-26.317S392.68,284.925,408.51,320.479Z" transform="translate(-383.196 -254.74)" fill="#80b314"/>
      <path id="Path_647" data-name="Path 647" d="M406.148,298a95.1,95.1,0,0,0,4.176,16.16c.031-7.123.165-14.241.355-21.364a55.334,55.334,0,0,1-2.057-13.264c0-.129.19-.123.2,0a76.14,76.14,0,0,0,1.9,11.413q.247-8.81.566-17.62a.077.077,0,1,1,.154,0c0,9.175,0,18.35-.062,27.531a73.222,73.222,0,0,0,3.117-10.9.036.036,0,0,1,.067,0,43.063,43.063,0,0,1-3.194,12.405c-.041,5.868-.1,11.731-.237,17.6,1.831-6.239,3.785-12.277,4.315-18.87a.067.067,0,0,1,.134,0c-.139,7.267-2.006,14.642-4.387,21.478a.447.447,0,0,1-.123.175q-.077,3.209-.185,6.429a.237.237,0,0,1-.473,0q-.134-6.578-.108-13.156a59.382,59.382,0,0,1-4.264-18C406.05,297.957,406.143,297.947,406.148,298Z" transform="translate(-385.272 -263.73)" fill="#263238"/>
      <path id="Path_648" data-name="Path 648" d="M407.466,315.276a36.663,36.663,0,0,1,.756,5.287c0,.062-.087.067-.1,0a37.856,37.856,0,0,1-.89-5.272C407.214,315.168,407.44,315.142,407.466,315.276Z" transform="translate(-385.849 -284.098)" fill="#263238"/>
      <path id="Path_649" data-name="Path 649" d="M419.444,286.873c0-.062.1-.041.1,0A13.457,13.457,0,0,1,419,290.52c-.026.1-.165.051-.144-.041C419.089,289.29,419.233,288.082,419.444,286.873Z" transform="translate(-391.497 -270.328)" fill="#263238"/>
      <path id="Path_650" data-name="Path 650" d="M387.035,341.2s.437-20.9-5.524-31.28A44.89,44.89,0,0,0,365.66,294.24S369.646,331.07,387.035,341.2Z" transform="translate(-365.66 -273.925)" fill="#80b314"/>
      <path id="Path_651" data-name="Path 651" d="M381.6,330.421a78.1,78.1,0,0,0,8.069,10.286q-1.79-6.408-4.114-12.6c-3.343-2.947-6.655-6-8.707-10.034-.031-.062.062-.118.1-.057a41.737,41.737,0,0,0,8.255,9.175,162.549,162.549,0,0,0-8.3-18.17.134.134,0,0,1,.226-.134,100.089,100.089,0,0,1,5.2,9.54c-.561-2.237-1.029-4.521-1.579-6.737a.048.048,0,1,1,.093-.026,37.969,37.969,0,0,1,2.448,8.862,106.931,106.931,0,0,1,5.251,14.3c-.154-3.132-.35-6.249-.669-9.376a.052.052,0,0,1,.1,0,51.219,51.219,0,0,1,.9,10.523c.859,3.112,1.584,6.264,2.165,9.438,0,.087-.108.123-.129.036-.324-1.332-.679-2.649-1.029-3.965h-.067a42.4,42.4,0,0,1-8.229-11C381.55,330.416,381.581,330.4,381.6,330.421Z" transform="translate(-371.089 -281.017)" fill="#263238"/>
      <path id="Path_652" data-name="Path 652" d="M372.56,317.723c.663.72,1.27,1.481,1.913,2.222a17.28,17.28,0,0,1,1.718,2.016c0,.031,0,.067-.046.046a9.977,9.977,0,0,1-1.985-1.965,16.825,16.825,0,0,1-1.7-2.248C372.426,317.738,372.513,317.671,372.56,317.723Z" transform="translate(-368.96 -285.321)" fill="#263238"/>
      <path id="Path_653" data-name="Path 653" d="M417.312,380.58l-.751,6.686-2.268,20.274H394.544l-2.258-20.264-.756-6.686h25.787Z" transform="translate(-378.225 -315.859)" fill="#455a64"/>
      <path id="Path_654" data-name="Path 654" d="M417.312,380.58l-.751,6.686H392.286l-.756-6.686h25.787Z" transform="translate(-378.225 -315.859)" fill="#37474f"/>
      <rect id="Rectangle_5587" data-name="Rectangle 5587" width="29.295" height="7.586" transform="translate(40.841 67.446) rotate(180)" fill="#455a64"/>
    </g>
    <g id="freepik--speech-bubble--inject-29" transform="translate(105.711 17.359)">
      <path id="Path_664" data-name="Path 664" d="M278.736,86.3a18.371,18.371,0,0,1-29.316,14.75l-9,2.3,3.749-8.383A18.376,18.376,0,1,1,278.746,86.3Z" transform="translate(-239.978 -67.808)" fill="#fff"/>
      <path id="Path_665" data-name="Path 665" d="M278.318,86.2a18.515,18.515,0,0,1-2.726,9.643,21.552,21.552,0,0,1-1.461,2.057,20.384,20.384,0,0,1-1.759,1.831,12.343,12.343,0,0,1-.957.833l-1.029.766c-.339.252-.715.453-1.075.684l-.54.334c-.185.1-.381.19-.566.283-.386.185-.761.381-1.147.555l-1.193.447a9.013,9.013,0,0,1-1.219.37c-.411.1-.813.237-1.234.3a17.435,17.435,0,0,1-2.53.309,16.246,16.246,0,0,1-2.572,0,18.767,18.767,0,0,1-4.973-1.1,18.958,18.958,0,0,1-4.49-2.428l.154.031-8.99,2.335-.453.118.19-.427,3.729-8.394v.221a18.2,18.2,0,0,1-2.15-8.08,18.5,18.5,0,1,1,36.984-.715Zm0,0a18.433,18.433,0,0,0-7.108-14.447,18.633,18.633,0,0,0-7.483-3.446,18.4,18.4,0,0,0-8.229.221,18.129,18.129,0,0,0-7.272,3.765,18.88,18.88,0,0,0-4.881,6.563,18.191,18.191,0,0,0,.6,15.892l.057.108-.046.113-3.76,8.378-.262-.314,9.016-2.258h.082l.072.051a18.119,18.119,0,0,0,9.258,3.6,15.861,15.861,0,0,0,2.52.036,18.647,18.647,0,0,0,2.5-.273c.417-.057.818-.2,1.229-.288a8.377,8.377,0,0,0,1.214-.35l1.188-.427,1.142-.54c.19-.093.386-.175.571-.278l.514-.324c.355-.221.735-.417,1.075-.663l1.029-.756a11.985,11.985,0,0,0,.957-.828,16.805,16.805,0,0,0,3.225-3.873A18.515,18.515,0,0,0,278.318,86.2Z" transform="translate(-239.56 -67.707)" fill="#263238"/>
      <path id="Path_666" data-name="Path 666" d="M265.624,104.268l-8.234-8.337,2.767-2.736,4.809,4.87,10-15.666,3.276,2.088Z" transform="translate(-248.22 -74.843)" fill="#80b314"/>
    </g>
    <g id="freepik--Table--inject-29" transform="translate(0 208.976)">
      <path id="Path_519" data-name="Path 519" d="M256.175,432.757l-27.768.129-27.768.041-55.54.087-55.54-.082-27.768-.046-27.773-.129,27.773-.123,27.768-.046,55.54-.087,55.54.087,27.768.046Z" transform="translate(-34.02 -432.5)" fill="#263238"/>
    </g>
    <g id="freepik--Books--inject-29" transform="translate(115.38 173.617)">
      <rect id="Rectangle_5588" data-name="Rectangle 5588" width="59.094" height="6.995" transform="translate(8.43 28.626)" fill="#37474f"/>
      <rect id="Rectangle_5589" data-name="Rectangle 5589" width="2.407" height="6.995" transform="translate(20.022 28.626)" fill="#455a64"/>
      <rect id="Rectangle_5590" data-name="Rectangle 5590" width="5.776" height="6.995" transform="translate(54.794 28.626)" fill="#455a64"/>
      <rect id="Rectangle_5591" data-name="Rectangle 5591" width="60.359" height="9.242" transform="translate(2.911 8.177)" fill="#37474f"/>
      <rect id="Rectangle_5592" data-name="Rectangle 5592" width="14.498" height="3.245" transform="translate(38.095 11.176)" fill="#80b314"/>
      <path id="Path_655" data-name="Path 655" d="M371.13,386.934a1.918,1.918,0,1,1-1.913-1.795A1.857,1.857,0,0,1,371.13,386.934Z" transform="translate(-311.27 -374.138)" fill="#80b314"/>
      <rect id="Rectangle_5593" data-name="Rectangle 5593" width="30.493" height="8.157" fill="#263238"/>
      <rect id="Rectangle_5594" data-name="Rectangle 5594" width="28.184" height="8.157" transform="translate(30.493)" fill="#263238"/>
      <rect id="Rectangle_5595" data-name="Rectangle 5595" width="30.493" height="6.465" transform="translate(0 0.849)" fill="#fff"/>
      <path id="Path_656" data-name="Path 656" d="M263.52,367.883q4.793-.062,9.587-.093l4.336-.031,9.582.031c3.194,0,1.142.046,4.336.093-3.194.046-1.142.077-4.336.1l-9.582.026-4.336-.026Q268.313,367.94,263.52,367.883Z" transform="translate(-260.866 -365.698)" fill="#dbdbdb"/>
      <path id="Path_657" data-name="Path 657" d="M263.52,370.333q4.793-.067,9.587-.093l4.336-.031,9.582.026c3.194,0,1.142.051,4.336.1-3.194.046-1.142.077-4.336.093l-9.582.031-4.336-.031Q268.313,370.405,263.52,370.333Z" transform="translate(-260.866 -366.888)" fill="#dbdbdb"/>
      <path id="Path_658" data-name="Path 658" d="M263.52,372.8q4.793-.062,9.587-.093l4.336-.026,9.582.026c3.194,0,1.142.051,4.336.093-3.194.046-1.142.082-4.336.1H273.107Q268.313,372.87,263.52,372.8Z" transform="translate(-260.866 -368.087)" fill="#dbdbdb"/>
      <path id="Path_659" data-name="Path 659" d="M263.52,375.263q4.793-.067,9.587-.093l4.336-.031,9.582.031c3.194,0,1.142.046,4.336.093-3.194.046-1.142.077-4.336.093l-9.582.031-4.336-.031Q268.313,375.335,263.52,375.263Z" transform="translate(-260.866 -369.282)" fill="#dbdbdb"/>
      <rect id="Rectangle_5596" data-name="Rectangle 5596" width="3.97" height="8.157" transform="translate(36.737)" fill="#455a64"/>
      <rect id="Rectangle_5597" data-name="Rectangle 5597" width="2.669" height="8.157" transform="translate(54.553)" fill="#455a64"/>
      <rect id="Rectangle_5598" data-name="Rectangle 5598" width="34.34" height="11.212" transform="translate(60.786 28.621) rotate(180)" fill="#00393a"/>
      <rect id="Rectangle_5599" data-name="Rectangle 5599" width="26.075" height="11.212" transform="translate(26.446 28.621) rotate(180)" fill="#00393a"/>
      <rect id="Rectangle_5600" data-name="Rectangle 5600" width="34.34" height="8.882" transform="translate(60.786 27.459) rotate(180)" fill="#fff"/>
      <path id="Path_660" data-name="Path 660" d="M341.889,413.473q-4.012.072-8.028.093l-8.028.031-8.028-.031q-4.017,0-8.034-.093,4.022-.067,8.034-.093l8.028-.031,8.028.031Q337.877,413.407,341.889,413.473Z" transform="translate(-283.329 -387.84)" fill="#dbdbdb"/>
      <path id="Path_661" data-name="Path 661" d="M341.889,410.1q-4.012.072-8.028.093l-8.028.031L317.8,410.2q-4.017-.031-8.034-.1,4.022-.067,8.034-.093l8.028-.01,8.028.031Q337.877,410.036,341.889,410.1Z" transform="translate(-283.329 -386.213)" fill="#dbdbdb"/>
      <path id="Path_662" data-name="Path 662" d="M341.889,406.693q-4.012.067-8.028.1l-8.028.026-8.028-.026q-4.017-.031-8.034-.1,4.022-.067,8.034-.093l8.028-.031,8.028.031Q337.877,406.627,341.889,406.693Z" transform="translate(-283.329 -384.547)" fill="#dbdbdb"/>
      <path id="Path_663" data-name="Path 663" d="M341.889,403.3q-4.012.067-8.028.1l-8.028.026L317.8,403.4q-4.017,0-8.034-.1,4.022-.072,8.034-.093l8.028-.031,8.028.031C336.54,403.226,339.2,403.262,341.889,403.3Z" transform="translate(-283.329 -382.901)" fill="#dbdbdb"/>
      <rect id="Rectangle_5601" data-name="Rectangle 5601" width="4.881" height="11.212" transform="translate(4.521 17.414)" fill="#455a64"/>
    </g>
  </g>
</svg>
