<svg id="Component_14_1" data-name="Component 14 – 1" xmlns="http://www.w3.org/2000/svg" width="45" height="49" viewBox="0 0 45 49">
  <ellipse id="Ellipse_131" data-name="Ellipse 131" cx="22.5" cy="24.5" rx="22.5" ry="24.5" fill="#f5f5f5"/>
  <g id="student" transform="translate(13.706 9.292)">
    <path id="Path_480" data-name="Path 480" d="M108.831,16.659a5.689,5.689,0,0,0,2.52-3.09h.058a2.164,2.164,0,0,0,.235-4.316V8.316a4.869,4.869,0,0,0,1.168-3.962,3.062,3.062,0,0,0-1.039-2.193,3.469,3.469,0,0,0-2.183-.72A5.111,5.111,0,0,0,104.7.2a8.044,8.044,0,0,0-1.422.574.416.416,0,0,0,.381.74A7.215,7.215,0,0,1,104.934,1a4.32,4.32,0,0,1,4.189,1.146.419.419,0,0,0,.343.131,2.714,2.714,0,0,1,1.78.527,2.268,2.268,0,0,1,.738,1.619,4.214,4.214,0,0,1-.806,3.175A7.951,7.951,0,0,1,109.59,5.6a.419.419,0,0,0-.732.009,3.741,3.741,0,0,1-2.367,1.8,3.261,3.261,0,0,0-.665-1.631.419.419,0,0,0-.637-.009,5.768,5.768,0,0,1-4.3,2.028.572.572,0,0,1-.153-.025,5.065,5.065,0,0,1-1.91-1.345,2.975,2.975,0,0,0,2.152-1.4.419.419,0,0,0-.383-.606,1.488,1.488,0,0,1-1.458-.759,2.149,2.149,0,0,1-.174-.392,5.261,5.261,0,0,0,3.28-.923.416.416,0,0,0-.432-.711A4.509,4.509,0,0,1,98.5,2.4a.419.419,0,0,0-.469.44A3.18,3.18,0,0,0,98.4,4.053,2.259,2.259,0,0,0,99.766,5.16a2.769,2.769,0,0,1-1.789.494.419.419,0,0,0-.344.668,7.415,7.415,0,0,0,2.693,2.188v.744a2.164,2.164,0,0,0,.235,4.316h.058a5.689,5.689,0,0,0,2.52,3.09,6.887,6.887,0,0,0-5.948,6.814v.864a.416.416,0,0,0,.832,0v-.864a6.024,6.024,0,0,1,1.687-4.184l5.351,5.888a1.256,1.256,0,0,0,1.847,0l1.749-1.924a.416.416,0,1,0-.616-.56l-1.749,1.924a.418.418,0,0,1-.616,0l-5.351-5.888a6.06,6.06,0,0,1,.77-.518l4.581,5.041a.419.419,0,0,0,.616,0l4.581-5.041a6.074,6.074,0,0,1,.77.518l-2.482,2.731a.416.416,0,0,0,.616.56l2.482-2.731a6.024,6.024,0,0,1,1.687,4.184v4.045H111.47V24.272a.416.416,0,1,0-.832,0v3.247h-9.3V24.272a.416.416,0,1,0-.832,0v3.247H98.024V26a.416.416,0,0,0-.832,0v1.933a.416.416,0,0,0,.416.416h16.755a.416.416,0,0,0,.416-.416V23.473A6.887,6.887,0,0,0,108.831,16.659Zm-2.206,1.815h-1.279l-.236-1.046h1.751Zm6.117-7.068a1.334,1.334,0,0,1-1.179,1.323,5.675,5.675,0,0,0,.082-.961V10.095A1.334,1.334,0,0,1,112.742,11.406Zm-13.514,0a1.334,1.334,0,0,1,1.1-1.311v1.674a5.672,5.672,0,0,0,.082.961A1.334,1.334,0,0,1,99.229,11.406Zm1.929.362V8.625a6.687,6.687,0,0,0,4.28-1.9,1.773,1.773,0,0,1,.2,1.119.416.416,0,0,0,.447.5,4.813,4.813,0,0,0,3.134-1.749,6.96,6.96,0,0,0,1.593,1.772v3.407a4.828,4.828,0,0,1-9.655,0Zm2.911,5.66h.188l.332,1.471-.291,1.6-2.416-2.659A6.014,6.014,0,0,1,104.069,17.428Zm1.917,4.926L105,21.272l.359-1.965h1.25l.359,1.965Zm1.688-1.857-.291-1.6.332-1.471h.188a6.013,6.013,0,0,1,2.187.41Z" transform="translate(-97.192 0.001)" fill="#969696"/>
    <path id="Path_481" data-name="Path 481" d="M222.777,232.834a2.488,2.488,0,0,0,2.414-1.348h0a.516.516,0,1,0-.953-.4,1.852,1.852,0,0,1-2.923,0,.516.516,0,1,0-.953.4h0A2.488,2.488,0,0,0,222.777,232.834Z" transform="translate(-213.983 -218.279)" fill="#969696"/>
    <path id="Path_482" data-name="Path 482" d="M203.215,176.049a.516.516,0,0,0-.516.516v1.458a.516.516,0,1,0,1.032,0v-1.458A.516.516,0,0,0,203.215,176.049Z" transform="translate(-197.573 -167.325)" fill="#969696"/>
    <path id="Path_483" data-name="Path 483" d="M294.817,178.54a.516.516,0,0,0,.516-.516v-1.458a.516.516,0,1,0-1.032,0v1.458A.516.516,0,0,0,294.817,178.54Z" transform="translate(-282.872 -167.326)" fill="#969696"/>
  </g>
</svg>
