<svg id="Component_14_1" data-name="Component 14 – 1" xmlns="http://www.w3.org/2000/svg" width="43" height="43" viewBox="0 0 43 43">
  <circle id="Ellipse_125" data-name="Ellipse 125" cx="21.5" cy="21.5" r="21.5" fill="#00393a"/>
  <g id="student" transform="translate(-84.192 8)">
    <path id="Path_480" data-name="Path 480" d="M108.443,16.1a5.5,5.5,0,0,0,2.436-2.987h.057a2.092,2.092,0,0,0,.227-4.172V8.038a4.706,4.706,0,0,0,1.129-3.83,2.96,2.96,0,0,0-1-2.119,3.353,3.353,0,0,0-2.11-.7,4.941,4.941,0,0,0-4.73-1.2,7.775,7.775,0,0,0-1.375.555.4.4,0,0,0,.369.715,6.974,6.974,0,0,1,1.234-.5,4.175,4.175,0,0,1,4.049,1.108.405.405,0,0,0,.332.127,2.623,2.623,0,0,1,1.721.509,2.192,2.192,0,0,1,.713,1.565,4.073,4.073,0,0,1-.779,3.069,7.685,7.685,0,0,1-1.535-1.928.405.405,0,0,0-.708.009,3.616,3.616,0,0,1-2.288,1.737,3.152,3.152,0,0,0-.643-1.577.4.4,0,0,0-.616-.008,5.575,5.575,0,0,1-4.152,1.961.553.553,0,0,1-.148-.024,4.9,4.9,0,0,1-1.847-1.3,2.876,2.876,0,0,0,2.08-1.349.405.405,0,0,0-.37-.586,1.438,1.438,0,0,1-1.409-.734,2.078,2.078,0,0,1-.168-.379,5.086,5.086,0,0,0,3.17-.892.4.4,0,0,0-.418-.687,4.359,4.359,0,0,1-3.207.731A.4.4,0,0,0,98,2.743a3.073,3.073,0,0,0,.363,1.174,2.184,2.184,0,0,0,1.318,1.07,2.676,2.676,0,0,1-1.73.478.4.4,0,0,0-.332.646,7.167,7.167,0,0,0,2.6,2.115v.719a2.092,2.092,0,0,0,.227,4.172h.057a5.5,5.5,0,0,0,2.436,2.987,6.657,6.657,0,0,0-5.749,6.586v.836a.4.4,0,1,0,.8,0v-.836a5.823,5.823,0,0,1,1.63-4.045l5.173,5.692a1.214,1.214,0,0,0,1.786,0l1.691-1.86a.4.4,0,1,0-.6-.541L105.99,23.8a.4.4,0,0,1-.6,0L100.222,18.1a5.857,5.857,0,0,1,.744-.5l4.428,4.873a.4.4,0,0,0,.6,0l4.428-4.873a5.87,5.87,0,0,1,.744.5l-2.4,2.64a.4.4,0,0,0,.6.541l2.4-2.64a5.822,5.822,0,0,1,1.63,4.045V26.6h-2.395V23.461a.4.4,0,1,0-.8,0V26.6H101.2V23.461a.4.4,0,1,0-.8,0V26.6H98V25.133a.4.4,0,1,0-.8,0V27a.4.4,0,0,0,.4.4h16.2a.4.4,0,0,0,.4-.4V22.689A6.657,6.657,0,0,0,108.443,16.1Zm-2.133,1.755h-1.236l-.228-1.011h1.692Zm5.913-6.832a1.29,1.29,0,0,1-1.14,1.279,5.485,5.485,0,0,0,.079-.929V9.758A1.29,1.29,0,0,1,112.223,11.025Zm-13.062,0a1.29,1.29,0,0,1,1.06-1.267v1.618a5.483,5.483,0,0,0,.079.929A1.29,1.29,0,0,1,99.161,11.025Zm1.865.35V8.337A6.463,6.463,0,0,0,105.162,6.5a1.714,1.714,0,0,1,.2,1.082.4.4,0,0,0,.432.482,4.652,4.652,0,0,0,3.029-1.691,6.728,6.728,0,0,0,1.54,1.713v3.293a4.666,4.666,0,0,1-9.333,0Zm2.814,5.471h.182l.321,1.422-.282,1.544-2.336-2.57A5.813,5.813,0,0,1,103.839,16.846Zm1.853,4.761-.951-1.046.347-1.9H106.3l.347,1.9Zm1.632-1.8-.282-1.544.321-1.422h.182a5.812,5.812,0,0,1,2.114.4Z" transform="translate(0)" fill="#f4f6f8"/>
    <path id="Path_481" data-name="Path 481" d="M222.231,232.375a1.935,1.935,0,0,0,1.877-1.048h0a.4.4,0,1,0-.741-.31,1.441,1.441,0,0,1-2.273,0,.4.4,0,1,0-.741.31h0A1.935,1.935,0,0,0,222.231,232.375Z" transform="translate(-116.539 -218.418)" fill="#f4f6f8"/>
    <path id="Path_482" data-name="Path 482" d="M203.1,176.049a.4.4,0,0,0-.4.4v1.134a.4.4,0,1,0,.8,0V176.45A.4.4,0,0,0,203.1,176.049Z" transform="translate(-99.86 -166.627)" fill="#f4f6f8"/>
    <path id="Path_483" data-name="Path 483" d="M294.7,177.987a.4.4,0,0,0,.4-.4v-1.134a.4.4,0,1,0-.8,0v1.134A.4.4,0,0,0,294.7,177.987Z" transform="translate(-186.559 -166.628)" fill="#f4f6f8"/>
  </g>
</svg>
