<svg id="layer2" xmlns="http://www.w3.org/2000/svg" width="20.26" height="20.26" viewBox="0 0 20.26 20.26">
  <path id="path890" d="M5.931,1.591a2.419,2.419,0,0,0-2.362,1.93H3.038A1.454,1.454,0,0,0,1.591,4.966V20.4a1.456,1.456,0,0,0,1.448,1.448H20.4A1.456,1.456,0,0,0,21.851,20.4V4.966A1.454,1.454,0,0,0,20.4,3.521h-.531a2.412,2.412,0,0,0-4.726,0H14.083a2.412,2.412,0,0,0-4.726,0H8.295a2.421,2.421,0,0,0-2.364-1.93Zm0,.965A1.438,1.438,0,0,1,7.3,3.521H4.566a1.438,1.438,0,0,1,1.365-.965Zm5.788,0a1.438,1.438,0,0,1,1.366.965H10.356a1.435,1.435,0,0,1,1.364-.965Zm5.791,0a1.435,1.435,0,0,1,1.364.965H16.144a1.438,1.438,0,0,1,1.366-.965ZM3.038,4.483h.531a2.42,2.42,0,0,0,2.362,1.93.482.482,0,1,0,0-.965,1.439,1.439,0,0,1-1.365-.965H9.357a2.42,2.42,0,0,0,2.362,1.93.482.482,0,1,0,0-.965,1.436,1.436,0,0,1-1.363-.965h4.79a2.423,2.423,0,0,0,2.364,1.93.482.482,0,1,0,0-.965,1.439,1.439,0,0,1-1.365-.965H20.4a.472.472,0,0,1,.482.483V7.379H10.756a.483.483,0,0,0,0,.965H20.885V20.4a.471.471,0,0,1-.482.482H3.038a.472.472,0,0,1-.483-.482V8.344H6.9a.483.483,0,0,0,0-.965H2.555V4.966a.472.472,0,0,1,.483-.483Zm5.788,2.9a.482.482,0,1,0,.482.482A.482.482,0,0,0,8.826,7.379ZM5.932,11.238a.482.482,0,1,0,.482.482A.482.482,0,0,0,5.932,11.238Zm2.894,0a.482.482,0,1,0,.482.482A.482.482,0,0,0,8.826,11.238Zm2.894,0a.482.482,0,1,0,.482.482A.482.482,0,0,0,11.72,11.238Zm2.894,0a.482.482,0,1,0,.482.482A.482.482,0,0,0,14.615,11.238Zm2.894,0a.482.482,0,1,0,.482.482A.482.482,0,0,0,17.509,11.238Zm-2.894,1.929a1.448,1.448,0,1,0,1.448,1.448,1.455,1.455,0,0,0-1.448-1.448Zm-8.683.965a.482.482,0,1,0,.482.482A.482.482,0,0,0,5.932,14.132Zm2.894,0a.482.482,0,1,0,.482.482A.482.482,0,0,0,8.826,14.132Zm2.894,0a.482.482,0,1,0,.482.482A.482.482,0,0,0,11.72,14.132Zm2.894,0a.482.482,0,1,1-.482.482A.475.475,0,0,1,14.615,14.132Zm2.894,0a.482.482,0,1,0,.482.482A.482.482,0,0,0,17.509,14.132ZM5.932,17.027a.482.482,0,1,0,.482.482A.482.482,0,0,0,5.932,17.027Zm2.894,0a.482.482,0,1,0,.482.482A.482.482,0,0,0,8.826,17.027Zm2.894,0a.482.482,0,1,0,.482.482A.482.482,0,0,0,11.72,17.027Zm2.894,0a.482.482,0,1,0,.482.482A.482.482,0,0,0,14.615,17.027Zm2.894,0a.482.482,0,1,0,.482.482A.482.482,0,0,0,17.509,17.027Z" transform="translate(-1.591 -1.591)" fill="#00393a" fill-rule="evenodd"/>
</svg>
