<svg id="Component_18_1" data-name="Component 18 – 1" xmlns="http://www.w3.org/2000/svg" width="28" height="28" viewBox="0 0 28 28">
  <path id="Path_443409" data-name="Path 443409" d="M14,0A14,14,0,1,1,0,14,14.22,14.22,0,0,1,1.879,6.99,13.873,13.873,0,0,1,14,0Z" fill="#e1f4da"/>
  <path id="left-arrow" d="M14.468,5.662H1.919L6.724,1.085A.629.629,0,0,0,5.856.173L.369,5.4A1.258,1.258,0,0,0,.38,7.191l5.477,5.217a.629.629,0,1,0,.868-.911L1.9,6.92H14.468a.629.629,0,1,0,0-1.258Z" transform="translate(4.214 16.175) rotate(-45)" fill="#91e076"/>
</svg>
