<svg id="Component_25_1" data-name="Component 25 – 1" xmlns="http://www.w3.org/2000/svg" width="45" height="44.38" viewBox="0 0 45 44.38">
  <rect id="Rectangle_11" data-name="Rectangle 11" width="45" height="44.38" rx="11" fill="#00393a"/>
  <g id="_x30_1._Facebook" transform="translate(-12.4 -1.1)">
    <path id="Icon_11_" d="M32.3,24.75H29.082c-.52,0-.682-.195-.682-.682v-3.93c0-.52.195-.682.682-.682H32.3V16.6a7.215,7.215,0,0,1,.877-3.671,5.39,5.39,0,0,1,2.891-2.4,7.227,7.227,0,0,1,2.5-.422H41.75c.455,0,.65.195.65.65v3.7c0,.455-.195.65-.65.65-.877,0-1.754,0-2.631.032a1.173,1.173,0,0,0-1.332,1.332c-.032.974,0,1.916,0,2.923h3.768c.52,0,.715.195.715.715v3.93c0,.52-.162.682-.715.682H37.787V35.306c0,.552-.162.747-.747.747H32.98c-.487,0-.682-.195-.682-.682V24.75Z" transform="translate(0 0)" fill="#f4f6f8"/>
  </g>
</svg>
