<svg xmlns="http://www.w3.org/2000/svg" xmlns:xlink="http://www.w3.org/1999/xlink" width="80" height="78" viewBox="0 0 80 78">
  <defs>
    <filter id="Rectangle_4997" x="0" y="0" width="80" height="78" filterUnits="userSpaceOnUse">
      <feOffset dy="3" input="SourceAlpha"/>
      <feGaussianBlur stdDeviation="5" result="blur"/>
      <feFlood flood-opacity="0.078"/>
      <feComposite operator="in" in2="blur"/>
      <feComposite in="SourceGraphic"/>
    </filter>
  </defs>
  <g id="Component_15_1" data-name="Component 15 – 1" transform="translate(15 12)">
    <g transform="matrix(1, 0, 0, 1, -15, -12)" filter="url(#Rectangle_4997)">
      <path id="Rectangle_4997-2" data-name="Rectangle 4997" d="M20,0H50a0,0,0,0,1,0,0V35A13,13,0,0,1,37,48H10A10,10,0,0,1,0,38V20A20,20,0,0,1,20,0Z" transform="translate(15 12)" fill="#00393a"/>
    </g>
    <g id="Layer_62" data-name="Layer 62" transform="translate(13 12)">
      <path id="Path_101924" data-name="Path 101924" d="M3,6H14a2,2,0,0,0,2,2h2a2,2,0,0,0,2-2h1a1,1,0,0,0,0-2H20a2,2,0,0,0-2-2H16a2,2,0,0,0-2,2H3A1,1,0,0,0,3,6ZM16,4h2V6H16Zm5,7H12a2,2,0,0,0-2-2H8a2,2,0,0,0-2,2H3a1,1,0,0,0,0,2H6a2,2,0,0,0,2,2h2a2,2,0,0,0,2-2h9a1,1,0,0,0,0-2ZM8,13V11h2v2Zm13,5H18a2,2,0,0,0-2-2H14a2,2,0,0,0-2,2H3a1,1,0,0,0,0,2h9a2,2,0,0,0,2,2h2a2,2,0,0,0,2-2h3a1,1,0,0,0,0-2Zm-7,2V18h2v2Z" fill="#f4f6f8"/>
    </g>
  </g>
</svg>
