<svg id="gear" xmlns="http://www.w3.org/2000/svg" width="21" height="20.999" viewBox="0 0 21 20.999">
  <path id="Path_339" data-name="Path 339" d="M27.747,21.925h1.608a.82.82,0,0,0,.82-.82V19.077a.82.82,0,0,0-.82-.819h-1.61a7.827,7.827,0,0,0-.948-2.284l1.137-1.137a.82.82,0,0,0,0-1.16L26.5,12.243a.82.82,0,0,0-1.159,0L24.2,13.381a7.829,7.829,0,0,0-2.283-.945V10.827a.82.82,0,0,0-.82-.82H19.071a.82.82,0,0,0-.82.82v1.609a7.828,7.828,0,0,0-2.283.945l-1.138-1.137a.82.82,0,0,0-1.159,0l-1.435,1.434a.82.82,0,0,0,0,1.16l1.137,1.137a7.829,7.829,0,0,0-.948,2.284h-1.61a.82.82,0,0,0-.82.819V21.1a.82.82,0,0,0,.82.82h1.608a7.829,7.829,0,0,0,.947,2.288L12.232,25.35a.82.82,0,0,0,0,1.159l1.434,1.435a.82.82,0,0,0,1.16,0l1.137-1.137a7.829,7.829,0,0,0,2.289.949v1.609a.82.82,0,0,0,.82.82H21.1a.82.82,0,0,0,.82-.82V27.757a7.828,7.828,0,0,0,2.289-.949l1.137,1.137a.82.82,0,0,0,1.16,0l1.434-1.435a.82.82,0,0,0,0-1.159L26.8,24.213A7.827,7.827,0,0,0,27.747,21.925Z" transform="translate(-9.585 -9.597)" fill="#80b314"/>
  <circle id="Ellipse_111" data-name="Ellipse 111" cx="5.083" cy="5.083" r="5.083" transform="translate(5.417 5.416)" fill="#e5e5e5"/>
  <circle id="Ellipse_112" data-name="Ellipse 112" cx="3.279" cy="3.279" r="3.279" transform="translate(7.221 7.22)" fill="#fff"/>
  <path id="Path_340" data-name="Path 340" d="M127.567,133.074a5.494,5.494,0,1,1,2.365-10.452.41.41,0,1,1-.353.74,4.673,4.673,0,1,0,2.133,2.06.41.41,0,0,1,.727-.379,5.494,5.494,0,0,1-4.873,8.032Z" transform="translate(-117.067 -117.082)" fill="#00393a"/>
  <path id="Path_341" data-name="Path 341" d="M334.066,159.208a.408.408,0,0,1-.291-.122l-.015-.015a.41.41,0,0,1,.58-.58l.018.019a.41.41,0,0,1-.291.7Z" transform="translate(-319.954 -151.876)" fill="#ffc72b"/>
  <path id="Path_342" data-name="Path 342" d="M169.7,173.43a3.72,3.72,0,0,1-1.185-.195.41.41,0,0,1,.261-.777,2.87,2.87,0,1,0-1.811-1.827.41.41,0,1,1-.779.255,3.687,3.687,0,1,1,3.515,2.544Z" transform="translate(-159.188 -159.238)" fill="#00393a"/>
  <path id="Path_343" data-name="Path 343" d="M189.89,303.373a.408.408,0,0,1-.288-.119l-.014-.014a.41.41,0,0,1,.58-.58l.011.011a.41.41,0,0,1-.289.7Z" transform="translate(-181.697 -290.132)" fill="#ffc72b"/>
  <path id="Path_344" data-name="Path 344" d="M11.514,21.011H9.486a1.231,1.231,0,0,1-1.23-1.23V18.489a8.224,8.224,0,0,1-1.814-.752l-.912.912a1.222,1.222,0,0,1-.87.36h0a1.222,1.222,0,0,1-.87-.36L2.357,17.214a1.231,1.231,0,0,1,0-1.739l.913-.913a8.223,8.223,0,0,1-.75-1.812H1.23A1.23,1.23,0,0,1,0,11.519V9.491a1.231,1.231,0,0,1,1.23-1.229H2.524a8.226,8.226,0,0,1,.751-1.808l-.912-.912a1.23,1.23,0,0,1,0-1.74L3.8,2.368a1.231,1.231,0,0,1,1.739,0l.913.913a8.226,8.226,0,0,1,1.807-.748V1.242A1.231,1.231,0,0,1,9.486.012h2.028a1.231,1.231,0,0,1,1.23,1.23V2.534a8.227,8.227,0,0,1,1.807.748l.913-.913a1.231,1.231,0,0,1,1.739,0L18.638,3.8a1.23,1.23,0,0,1,0,1.74l-.912.912a8.225,8.225,0,0,1,.751,1.808h1.293A1.231,1.231,0,0,1,21,9.491V11.52a1.23,1.23,0,0,1-1.23,1.23H18.479a8.225,8.225,0,0,1-.75,1.812l.913.913a1.231,1.231,0,0,1,0,1.739l-1.434,1.435a1.222,1.222,0,0,1-.87.36h0a1.222,1.222,0,0,1-.87-.36l-.912-.912a8.224,8.224,0,0,1-1.814.752v1.292A1.231,1.231,0,0,1,11.514,21.011Zm-5.137-4.2a.409.409,0,0,1,.215.061,7.412,7.412,0,0,0,2.169.9.41.41,0,0,1,.315.4v1.609a.41.41,0,0,0,.41.41h2.028a.41.41,0,0,0,.41-.41V18.172a.41.41,0,0,1,.315-.4,7.412,7.412,0,0,0,2.169-.9.41.41,0,0,1,.5.059L16.05,18.07a.41.41,0,0,0,.58,0l1.434-1.435a.41.41,0,0,0,0-.58l-1.137-1.138a.41.41,0,0,1-.059-.5,7.411,7.411,0,0,0,.9-2.168.41.41,0,0,1,.4-.315H19.77a.41.41,0,0,0,.41-.41V9.492a.41.41,0,0,0-.41-.41h-1.61a.41.41,0,0,1-.4-.315,7.409,7.409,0,0,0-.9-2.164.41.41,0,0,1,.059-.5l1.137-1.137a.41.41,0,0,0,0-.58L16.623,2.948a.41.41,0,0,0-.58,0L14.906,4.086a.41.41,0,0,1-.5.059,7.412,7.412,0,0,0-2.163-.9.41.41,0,0,1-.315-.4V1.242a.41.41,0,0,0-.41-.41H9.486a.41.41,0,0,0-.41.41V2.851a.41.41,0,0,1-.315.4,7.413,7.413,0,0,0-2.163.9.41.41,0,0,1-.5-.059L4.956,2.949a.41.41,0,0,0-.58,0L2.942,4.382a.41.41,0,0,0,0,.58L4.078,6.1a.41.41,0,0,1,.059.5,7.411,7.411,0,0,0-.9,2.164.41.41,0,0,1-.4.315H1.231a.41.41,0,0,0-.41.41V11.52a.41.41,0,0,0,.41.41H2.838a.41.41,0,0,1,.4.315,7.412,7.412,0,0,0,.9,2.168.41.41,0,0,1-.059.5L2.937,16.055a.41.41,0,0,0,0,.58L4.37,18.07a.407.407,0,0,0,.29.12h0a.407.407,0,0,0,.29-.12l1.137-1.137A.409.409,0,0,1,6.377,16.813Z" transform="translate(0 -0.012)" fill="#00393a"/>
</svg>
