<svg id="home" xmlns="http://www.w3.org/2000/svg" width="21" height="20.929" viewBox="0 0 21 20.929">
  <path id="Path_310" data-name="Path 310" d="M6,13.483v7.874H23.061V9.218L14.53,2,6,8.89Z" transform="translate(-4.031 -1.413)" fill="#fff"/>
  <path id="Path_311" data-name="Path 311" d="M29.937,2l-1.007.814,7.569,6.4V21.357h1.969V9.218Z" transform="translate(-19.437 -1.413)" opacity="0.1"/>
  <path id="Path_312" data-name="Path 312" d="M23.312,34h3.937a1.312,1.312,0,0,1,1.312,1.312v7.874H22V35.312A1.312,1.312,0,0,1,23.312,34Z" transform="translate(-14.781 -22.914)" fill="#80b314"/>
  <path id="Path_313" data-name="Path 313" d="M33.969,34H32a1.312,1.312,0,0,1,1.312,1.312v7.874h1.969V35.312A1.312,1.312,0,0,0,33.969,34Z" transform="translate(-21.5 -22.914)" opacity="0.1"/>
  <circle id="Ellipse_110" data-name="Ellipse 110" cx="0.656" cy="0.656" r="0.656" transform="translate(9.187 15.023)" fill="#ffc72b"/>
  <path id="Path_314" data-name="Path 314" d="M20.76,8.166,17.387,5.358V3.094a.656.656,0,1,0-1.312,0V4.262L11.757.666a1.969,1.969,0,0,0-2.52,0l-9,7.5a.657.657,0,1,0,.84,1.011l9-7.5a.656.656,0,0,1,.84,0l7.454,6.211V19.171a.656.656,0,0,1-.656.656H14.434V12.609a1.969,1.969,0,0,0-1.969-1.969H8.529A1.969,1.969,0,0,0,6.56,12.609v7.218H3.279a.656.656,0,0,1-.656-.656V11.3a.656.656,0,0,0-1.312,0v7.874a1.969,1.969,0,0,0,1.969,1.969H17.715a1.969,1.969,0,0,0,1.969-1.969V8.98l.236.2a.657.657,0,1,0,.84-1.011ZM7.872,19.827V12.609a.656.656,0,0,1,.656-.656h3.937a.656.656,0,0,1,.656.656v7.218Z" transform="translate(0.003 -0.21)" fill="#00393a"/>
</svg>
