<svg id="Layer_15" xmlns="http://www.w3.org/2000/svg" width="21" height="21" viewBox="0 0 21 21">
  <path id="Path_336" data-name="Path 336" d="M11.784,2.7l8.346,2.03A1.4,1.4,0,0,1,21.2,6.1v11.8a1.4,1.4,0,0,1-1.069,1.36l-8.346,2.03A1.4,1.4,0,0,1,10,19.939V4.051A1.4,1.4,0,0,1,11.784,2.7Z" transform="translate(-3.7 -1.495)" fill="#80b314"/>
  <g id="Group_57981" data-name="Group 57981">
    <path id="Path_337" data-name="Path 337" d="M22.3,1H11.1A2.1,2.1,0,0,0,9,3.1V8.7a.7.7,0,0,0,1.4,0V3.1a.7.7,0,0,1,.7-.7H22.3a.7.7,0,0,1,.7.7V19.9a.7.7,0,0,1-.7.7H11.1a.7.7,0,0,1-.7-.7V14.3a.7.7,0,1,0-1.4,0v5.6A2.1,2.1,0,0,0,11.1,22H22.3a2.1,2.1,0,0,0,2.1-2.1V3.1A2.1,2.1,0,0,0,22.3,1Z" transform="translate(-3.4 -1)" fill="#00393a"/>
    <path id="Path_338" data-name="Path 338" d="M3.39,15.5H11.5a.7.7,0,1,0,0-1.4H3.39l.905-.905a.7.7,0,0,0-.99-.99l-2.1,2.1a.7.7,0,0,0,0,.99l2.1,2.1a.7.7,0,0,0,.99-.99Z" transform="translate(-1 -4.3)" fill="#00393a"/>
  </g>
</svg>
