<svg xmlns="http://www.w3.org/2000/svg" xmlns:xlink="http://www.w3.org/1999/xlink" width="384.741" height="924.005" viewBox="0 0 384.741 924.005">
  <defs>
    <clipPath id="clip-path"/>
  </defs>
  <g id="Mask_Group_2" data-name="Mask Group 2" transform="translate(-554 -515.995)" clip-path="url(#clip-path)">
    <path id="Rectangle_109" data-name="Rectangle 109" d="M35,0H284a0,0,0,0,1,0,0V812a0,0,0,0,1,0,0H0a0,0,0,0,1,0,0V35A35,35,0,0,1,35,0Z" transform="translate(554 628)" fill="#f4f6f8"/>
    <g id="Component_20_1" data-name="Component 20 – 1" transform="translate(696 515.995)">
      <g id="Group_57989" data-name="Group 57989" transform="matrix(0.799, 0.602, -0.602, 0.799, 71.653, 0)" opacity="0.74">
        <path id="Path_345" data-name="Path 345" d="M-144.656-93.921s.213-14.9,25.539-2.007c35.451,18.06,42.991-45.545,73.364-21.739s29.765-36.819,52.994-14.077,16.175-55.73,40.163-39.008L-152.5-203.8Z" transform="translate(166.82 203.8)" fill="#80b314"/>
        <rect id="Rectangle_107" data-name="Rectangle 107" width="209.859" height="98.508" transform="translate(0 5.684)" fill="none" opacity="0.3"/>
        <g id="Group_57986" data-name="Group 57986" transform="translate(18.531 6.661)">
          <path id="Path_346" data-name="Path 346" d="M22.083-128.731S-16.864-76.741-23.158-106.05-43.315-79.2-73.141-95.226C-103-111.31-121.18-57.708-126.865-86.2s-16.023,30.13-42.535,4.773L-158.7-155Z" transform="translate(169.4 155)" fill="#f2f2f2"/>
        </g>
        <path id="Path_347" data-name="Path 347" d="M-97.6-28.7s2.4-65.551,39.221-31.711,23.533-27.151,45.636-.517C9.33-34.29,22.89-97.1,76.31-78.346" transform="translate(128.612 118.965)" fill="none" stroke="#2d2d2d" stroke-miterlimit="10" stroke-width="0.167"/>
        <path id="Path_348" data-name="Path 348" d="M-97.5-27.852s2.8-64.76,39.4-31.164,23.958-27.394,46.366-.973c22.438,26.421,35.846-36.363,88.11-17.969" transform="translate(128.542 118.608)" fill="none" stroke="#2c2c2c" stroke-miterlimit="10" stroke-width="0.166"/>
        <path id="Path_349" data-name="Path 349" d="M-97.4-27.141s3.162-63.97,39.616-30.617,24.353-27.637,47.126-1.429C12.115-33.009,25.4-95.7,76.51-77.733" transform="translate(128.473 118.353)" fill="none" stroke="#2b2b2b" stroke-miterlimit="10" stroke-width="0.166"/>
        <path id="Path_350" data-name="Path 350" d="M-97.3-26.286s3.557-63.21,39.829-30.069,24.718-27.85,47.856-1.885,36.3-36.667,86.225-19.094" transform="translate(128.403 117.984)" fill="none" stroke="#2a2a2a" stroke-miterlimit="10" stroke-width="0.165"/>
        <path id="Path_351" data-name="Path 351" d="M-97.3-25.556s3.952-62.419,40.011-29.522,25.144-28.093,48.616-2.371S27.842-94.268,76.61-77.121" transform="translate(128.403 117.74)" fill="none" stroke="#292929" stroke-miterlimit="10" stroke-width="0.164"/>
        <path id="Path_352" data-name="Path 352" d="M-97.2-24.711s4.348-61.629,40.224-28.975S-31.406-82.022-7.6-56.514,29.128-93.485,76.74-76.732" transform="translate(128.334 117.382)" fill="none" stroke="#282828" stroke-miterlimit="10" stroke-width="0.164"/>
        <path id="Path_353" data-name="Path 353" d="M-97.1-23.919s4.743-60.838,40.437-28.428S-30.7-80.926-6.557-55.63s36.941-37.123,83.4-20.8" transform="translate(128.264 117.077)" fill="none" stroke="#272727" stroke-miterlimit="10" stroke-width="0.163"/>
        <path id="Path_354" data-name="Path 354" d="M-97-23.118s5.108-60.048,40.62-27.85,26.36-28.792,50.866-3.74C18.96-29.655,31.669-91.983,76.94-76.051" transform="translate(128.194 116.732)" fill="none" stroke="#262626" stroke-miterlimit="10" stroke-width="0.162"/>
        <path id="Path_355" data-name="Path 355" d="M-96.9-22.41s5.5-59.257,40.832-27.3c35.3,31.924,26.755-29.036,51.6-4.226S32.924-91.366,77.04-75.86" transform="translate(128.125 116.51)" fill="none" stroke="#252525" stroke-miterlimit="10" stroke-width="0.162"/>
        <path id="Path_356" data-name="Path 356" d="M-96.9-21.587S-91-80.053-55.855-48.342-28.674-77.621-3.5-53.024,34.11-90.6,77.071-75.493" transform="translate(128.125 116.173)" fill="none" stroke="#242424" stroke-miterlimit="10" stroke-width="0.161"/>
        <path id="Path_357" data-name="Path 357" d="M-96.8-20.838s6.294-57.676,41.228-26.208S-28-76.538-2.487-52.185C23.052-27.831,35.365-89.946,77.171-75.231" transform="translate(128.055 115.911)" fill="none" stroke="#232323" stroke-miterlimit="10" stroke-width="0.161"/>
        <path id="Path_358" data-name="Path 358" d="M-96.7-20.108s6.689-56.916,41.44-25.661c34.752,31.225,28-29.735,53.845-5.594S36.621-89.246,77.271-74.957" transform="translate(127.986 115.637)" fill="none" stroke="#222" stroke-miterlimit="10" stroke-width="0.16"/>
        <path id="Path_359" data-name="Path 359" d="M-96.6-19.369s7.054-56.125,41.653-25.114,28.4-29.978,54.605-6.05C25.836-26.605,37.907-88.6,77.371-74.7" transform="translate(127.916 115.384)" fill="none" stroke="#212121" stroke-miterlimit="10" stroke-width="0.16"/>
        <path id="Path_360" data-name="Path 360" d="M-96.5-18.621s7.449-55.335,41.836-24.566S-25.872-73.378.671-49.693s38.491-38.218,76.8-24.749" transform="translate(127.846 115.122)" fill="none" stroke="#202020" stroke-miterlimit="10" stroke-width="0.159"/>
        <path id="Path_361" data-name="Path 361" d="M-96.5-17.877S-88.656-72.421-54.452-41.9s29.218-30.434,56.1-6.962,38.7-38.37,75.858-25.326" transform="translate(127.846 114.865)" fill="none" stroke="#1f1f1f" stroke-miterlimit="10" stroke-width="0.158"/>
        <path id="Path_362" data-name="Path 362" d="M-96.4-17.138s8.239-53.754,42.261-23.472,29.613-30.647,56.825-7.419S41.6-86.55,77.6-73.871" transform="translate(127.777 114.582)" fill="none" stroke="#1e1e1e" stroke-miterlimit="10" stroke-width="0.158"/>
        <path id="Path_363" data-name="Path 363" d="M-96.3-16.408s8.635-52.963,42.444-22.924,30.009-30.89,57.585-7.875C31.3-24.222,42.889-85.88,77.7-73.628" transform="translate(127.707 114.339)" fill="none" stroke="#1d1d1d" stroke-miterlimit="10" stroke-width="0.157"/>
        <path id="Path_364" data-name="Path 364" d="M-96.2-15.752s9-52.173,42.657-22.377,30.4-31.134,58.315-8.361,39.373-38.826,73.03-27" transform="translate(127.638 114.169)" fill="none" stroke="#1c1c1c" stroke-miterlimit="10" stroke-width="0.156"/>
        <path id="Path_365" data-name="Path 365" d="M-96.1-14.981s9.395-51.382,42.869-21.83S-22.4-68.188,5.844-45.628,45.43-84.606,77.932-73.174" transform="translate(127.568 113.885)" fill="none" stroke="#1b1b1b" stroke-miterlimit="10" stroke-width="0.156"/>
        <path id="Path_366" data-name="Path 366" d="M-96-14.3s9.79-50.622,43.052-21.283c33.262,29.37,31.225-31.559,59.8-9.243C35.466-22.51,46.655-83.956,78-72.95" transform="translate(127.498 113.661)" fill="none" stroke="#1a1a1a" stroke-miterlimit="10" stroke-width="0.155"/>
        <path id="Path_367" data-name="Path 367" d="M-96-13.612s10.185-49.832,43.265-20.735,31.62-31.833,60.564-9.729,40.011-39.282,70.2-28.671" transform="translate(127.498 113.458)" fill="none" stroke="#191919" stroke-miterlimit="10" stroke-width="0.155"/>
        <path id="Path_368" data-name="Path 368" d="M-95.9-12.846S-85.319-61.887-52.453-33C-19.556-4.15-20.407-65.08,8.872-43.189c29.279,21.86,40.255-39.434,69.26-29.248" transform="translate(127.429 113.178)" fill="none" stroke="#181818" stroke-miterlimit="10" stroke-width="0.154"/>
        <path id="Path_369" data-name="Path 369" d="M-95.8-12.183s10.945-48.251,43.66-19.61S-19.7-64.113,9.914-42.465s40.467-39.616,68.317-29.8" transform="translate(127.359 113.002)" fill="none" stroke="#171717" stroke-miterlimit="10" stroke-width="0.153"/>
        <path id="Path_370" data-name="Path 370" d="M-95.7-11.5s11.341-47.46,43.873-19.063S-18.991-63.095,10.987-41.69s40.68-39.768,67.375-30.373" transform="translate(127.29 112.805)" fill="none" stroke="#161616" stroke-miterlimit="10" stroke-width="0.153"/>
        <path id="Path_371" data-name="Path 371" d="M-95.6-10.854s11.736-46.67,44.055-18.516S-18.283-62.145,12-40.953s40.924-39.89,66.463-30.921" transform="translate(127.22 112.615)" fill="none" stroke="#161616" stroke-miterlimit="10" stroke-width="0.152"/>
        <path id="Path_372" data-name="Path 372" d="M-95.6-10.2s12.131-45.879,44.268-17.969,33.657-32.988,64.3-12.04C43.65-19.257,54.108-80.278,78.492-71.7" transform="translate(127.22 112.445)" fill="none" stroke="#151515" stroke-miterlimit="10" stroke-width="0.152"/>
        <path id="Path_373" data-name="Path 373" d="M-95.5-9.477S-82.974-54.566-51.019-26.9s34.052-33.231,65.064-12.5S55.394-79.619,78.623-71.44" transform="translate(127.15 112.212)" fill="none" stroke="#141414" stroke-miterlimit="10" stroke-width="0.151"/>
        <path id="Path_374" data-name="Path 374" d="M-95.4-8.892S-82.509-53.22-50.737-25.766-16.259-59.24,15.087-38.748C46.4-18.226,56.65-79.124,78.692-71.372" transform="translate(127.081 112.113)" fill="none" stroke="#131313" stroke-miterlimit="10" stroke-width="0.15"/>
        <path id="Path_375" data-name="Path 375" d="M-95.3-8.217s13.286-43.538,44.876-16.327S-15.551-58.231,16.13-37.952,57.9-78.48,78.792-71.123" transform="translate(127.011 111.894)" fill="none" stroke="#121212" stroke-miterlimit="10" stroke-width="0.15"/>
        <path id="Path_376" data-name="Path 376" d="M-95.2-7.647s13.682-42.748,45.089-15.78,35.268-33.931,67.284-13.895S59.16-78,78.923-71.07" transform="translate(126.942 111.811)" fill="none" stroke="#111" stroke-miterlimit="10" stroke-width="0.149"/>
        <path id="Path_377" data-name="Path 377" d="M-95.2-6.956s14.077-41.957,45.271-15.232C-18.7,4.537-14.265-56.362,18.115-36.539s42.231-40.832,60.808-34.3" transform="translate(126.942 111.606)" fill="none" stroke="#101010" stroke-miterlimit="10" stroke-width="0.149"/>
        <path id="Path_378" data-name="Path 378" d="M-95.1-6.332S-80.628-47.5-49.616-21.017s36.089-34.387,68.8-14.807S61.632-76.808,79.023-70.7" transform="translate(126.872 111.468)" fill="none" stroke="#0f0f0f" stroke-miterlimit="10" stroke-width="0.148"/>
        <path id="Path_379" data-name="Path 379" d="M-95-5.755s14.837-40.376,45.7-14.138,36.485-34.6,69.534-15.232S62.887-76.292,79.153-70.576" transform="translate(126.802 111.347)" fill="none" stroke="#0e0e0e" stroke-miterlimit="10" stroke-width="0.147"/>
        <path id="Path_380" data-name="Path 380" d="M-94.9-5.155s15.232-39.586,45.879-13.591,36.88-34.843,70.294-15.719,42.869-41.319,57.98-36" transform="translate(126.733 111.234)" fill="none" stroke="#0d0d0d" stroke-miterlimit="10" stroke-width="0.147"/>
        <path id="Path_381" data-name="Path 381" d="M-94.8-4.493s15.628-38.8,46.092-13.043C-18.243,8.246-11.4-52.622,22.316-33.711S65.4-75.182,79.353-70.257" transform="translate(126.663 111.059)" fill="none" stroke="#0c0c0c" stroke-miterlimit="10" stroke-width="0.146"/>
        <path id="Path_382" data-name="Path 382" d="M-94.8-3.9s16.023-38.035,46.305-12.5,37.7-35.329,71.783-16.631,43.325-41.623,56.1-37.123" transform="translate(126.663 110.953)" fill="none" stroke="#0b0b0b" stroke-miterlimit="10" stroke-width="0.146"/>
        <path id="Path_383" data-name="Path 383" d="M-94.7-3.348s16.418-37.245,46.487-11.918c30.1,25.3,38.1-35.572,72.513-17.117s43.569-41.744,55.183-37.67" transform="translate(126.594 110.856)" fill="none" stroke="#0a0a0a" stroke-miterlimit="10" stroke-width="0.145"/>
        <path id="Path_384" data-name="Path 384" d="M-94.6-2.78s16.783-36.454,46.7-11.371C-17.982,10.9-9.378-49.936,25.373-31.724c34.782,18.242,43.751-41.927,54.21-38.248" transform="translate(126.524 110.774)" fill="none" stroke="#090909" stroke-miterlimit="10" stroke-width="0.144"/>
        <path id="Path_385" data-name="Path 385" d="M-94.5-2.214s17.178-35.664,46.913-10.824C-17.882,11.8-8.67-49.066,26.446-31.067c35.086,18,43.934-42.079,53.237-38.826" transform="translate(126.454 110.695)" fill="none" stroke="#080808" stroke-miterlimit="10" stroke-width="0.144"/>
        <path id="Path_386" data-name="Path 386" d="M-94.4-1.662s17.573-34.873,47.1-10.276S-7.992-48.21,27.459-30.454C62.909-12.668,71.666-72.685,79.784-69.827" transform="translate(126.385 110.629)" fill="none" stroke="#070707" stroke-miterlimit="10" stroke-width="0.143"/>
        <path id="Path_387" data-name="Path 387" d="M-94.4-1.144s17.969-34.083,47.308-9.729S-7.384-47.358,28.431-29.815,72.851-72.2,79.814-69.765" transform="translate(126.385 110.567)" fill="none" stroke="#060606" stroke-miterlimit="10" stroke-width="0.142"/>
        <path id="Path_388" data-name="Path 388" d="M-94.3-.542s18.364-33.292,47.521-9.182,40.133-36.728,76.253-19.4,44.633-42.565,50.44-40.5" transform="translate(126.315 110.452)" fill="none" stroke="#050505" stroke-miterlimit="10" stroke-width="0.142"/>
        <path id="Path_389" data-name="Path 389" d="M-94.2-.012s18.729-32.5,47.7-8.635S-5.968-45.618,30.516-28.531s44.846-42.687,49.5-41.045" transform="translate(126.246 110.408)" fill="none" stroke="#040404" stroke-miterlimit="10" stroke-width="0.141"/>
        <path id="Path_390" data-name="Path 390" d="M-94.1.508s19.124-31.742,47.916-8.087S-5.26-44.793,31.559-27.919,76.648-70.758,80.114-69.542" transform="translate(126.176 110.374)" fill="none" stroke="#030303" stroke-miterlimit="10" stroke-width="0.141"/>
        <path id="Path_391" data-name="Path 391" d="M-94,1.018s19.519-30.951,48.129-7.54,41.349-37.427,78.5-20.8S77.9-70.34,80.214-69.519" transform="translate(126.106 110.352)" fill="none" stroke="#020202" stroke-miterlimit="10" stroke-width="0.14"/>
        <path id="Path_392" data-name="Path 392" d="M-94,1.488s19.915-30.161,48.312-6.993,41.744-37.67,79.263-21.252,45.515-43.173,46.67-42.748" transform="translate(126.106 110.338)" fill="none" stroke="#010101" stroke-miterlimit="10" stroke-width="0.14"/>
        <path id="Path_393" data-name="Path 393" d="M-93.9,1.979s20.31-29.37,48.525-6.446,42.14-37.883,79.992-21.708C72.47-9.969,80.375-69.5,80.375-69.5" transform="translate(126.037 110.332)" fill="none" stroke="#000" stroke-miterlimit="10" stroke-width="0.139"/>
        <circle id="Ellipse_113" data-name="Ellipse 113" cx="0.608" cy="0.608" r="0.608" transform="translate(109.758 57.311)" fill="#ffc248"/>
        <circle id="Ellipse_114" data-name="Ellipse 114" cx="0.608" cy="0.608" r="0.608" transform="translate(109.758 62.024)" fill="#ffc248"/>
        <circle id="Ellipse_115" data-name="Ellipse 115" cx="0.608" cy="0.608" r="0.608" transform="translate(109.758 66.767)" fill="#ffc248"/>
        <circle id="Ellipse_116" data-name="Ellipse 116" cx="0.608" cy="0.608" r="0.608" transform="translate(109.758 71.479)" fill="#ffc248"/>
        <g id="Group_57987" data-name="Group 57987" transform="translate(56.634 74.429)">
          <circle id="Ellipse_117" data-name="Ellipse 117" cx="0.48" cy="0.48" r="0.48" transform="translate(0 0.209)" fill="#353535"/>
          <circle id="Ellipse_118" data-name="Ellipse 118" cx="0.608" cy="0.608" r="0.608" transform="translate(4.508 0)" fill="#353535"/>
          <circle id="Ellipse_119" data-name="Ellipse 119" cx="0.608" cy="0.608" r="0.608" transform="translate(9.251 0)" fill="#353535"/>
          <circle id="Ellipse_120" data-name="Ellipse 120" cx="0.608" cy="0.608" r="0.608" transform="translate(13.964 0)" fill="#353535"/>
        </g>
        <g id="Group_57988" data-name="Group 57988" transform="translate(133.138 95.438)">
          <path id="Path_394" data-name="Path 394" d="M238.908,110.1a.608.608,0,1,1-.608.608A.61.61,0,0,1,238.908,110.1Z" transform="translate(-238.3 -110.1)" fill="#353535"/>
          <circle id="Ellipse_121" data-name="Ellipse 121" cx="0.608" cy="0.608" r="0.608" transform="translate(4.713 0)" fill="#353535"/>
          <circle id="Ellipse_122" data-name="Ellipse 122" cx="0.608" cy="0.608" r="0.608" transform="translate(9.456 0)" fill="#353535"/>
          <circle id="Ellipse_123" data-name="Ellipse 123" cx="0.608" cy="0.608" r="0.608" transform="translate(14.168 0)" fill="#353535"/>
        </g>
        <line id="Line_13" data-name="Line 13" x2="4.226" transform="translate(207.05 67.983)" fill="none" stroke="#353535" stroke-miterlimit="10" stroke-width="0.5"/>
        <line id="Line_14" data-name="Line 14" y1="4.226" transform="translate(209.178 65.855)" fill="none" stroke="#353535" stroke-miterlimit="10" stroke-width="0.5"/>
        <line id="Line_15" data-name="Line 15" x2="4.226" transform="translate(102.157 72.696)" fill="none" stroke="#353535" stroke-miterlimit="10" stroke-width="0.5"/>
        <line id="Line_16" data-name="Line 16" y1="4.196" transform="translate(104.285 70.598)" fill="none" stroke="#353535" stroke-miterlimit="10" stroke-width="0.5"/>
        <line id="Line_17" data-name="Line 17" x2="4.196" transform="translate(69.108 116.964)" fill="none" stroke="#353535" stroke-miterlimit="10" stroke-width="0.5"/>
        <line id="Line_18" data-name="Line 18" y1="4.196" transform="translate(71.206 114.866)" fill="none" stroke="#353535" stroke-miterlimit="10" stroke-width="0.5"/>
        <path id="Path_395" data-name="Path 395" d="M-6,78.481l2.736,1.581V76.9Z" transform="translate(64.862 8.444)" fill="#353535"/>
        <path id="Path_396" data-name="Path 396" d="M222.8-.619,225.536.962V-2.2Z" transform="translate(-94.374 63.494)" fill="#353535"/>
      </g>
    </g>
  </g>
</svg>
