<?xml version="1.0" standalone="no"?>
<!DOCTYPE svg PUBLIC "-//W3C//DTD SVG 20010904//EN"
 "http://www.w3.org/TR/2001/REC-SVG-20010904/DTD/svg10.dtd">
<svg version="1.0" xmlns="http://www.w3.org/2000/svg"
 width="73.000000pt" height="70.000000pt" viewBox="0 0 73.000000 70.000000"
 preserveAspectRatio="xMidYMid meet">

<g transform="translate(0.000000,70.000000) scale(0.100000,-0.100000)"
fill="#000000" stroke="none">
<path d="M405 520 l-30 -8 30 -2 c24 -2 20 -4 -20 -11 -27 -5 -84 -13 -125
-19 l-75 -9 80 5 c108 6 253 31 205 34 -27 3 -21 5 25 10 l60 7 -60 0 c-33 0
-73 -3 -90 -7z"/>
<path d="M578 513 c7 -3 16 -2 19 1 4 3 -2 6 -13 5 -11 0 -14 -3 -6 -6z"/>
<path d="M313 503 c9 -2 23 -2 30 0 6 3 -1 5 -18 5 -16 0 -22 -2 -12 -5z"/>
<path d="M648 495 c17 -8 32 -19 32 -26 0 -8 -4 -8 -12 -1 -7 5 -29 12 -48 16
l-35 6 35 -13 35 -14 3 -79 c4 -92 -4 -144 -21 -144 -7 1 -30 13 -51 28 -31
22 -47 46 -80 120 l-41 92 -40 0 c-22 0 -56 -4 -75 -9 -19 -5 -47 -12 -62 -15
-21 -5 -28 -12 -28 -31 0 -29 5 -30 53 -10 52 21 81 19 116 -10 66 -57 63
-143 -9 -208 -22 -19 -40 -40 -40 -45 0 -5 42 -9 93 -9 50 0 111 -5 133 -10
47 -12 52 -9 77 29 14 23 17 52 17 172 l0 145 -30 16 c-16 8 -35 15 -42 15 -7
-1 2 -7 20 -15z"/>
<path d="M543 493 c9 -2 23 -2 30 0 6 3 -1 5 -18 5 -16 0 -22 -2 -12 -5z"/>
<path d="M350 396 c0 -3 12 -16 27 -30 30 -28 24 -48 -9 -27 -17 11 -23 10
-36 -3 -17 -17 -15 -18 39 -30 32 -7 43 -30 28 -58 -13 -25 -5 -35 16 -18 37
30 39 118 3 147 -15 13 -68 28 -68 19z"/>
<path d="M300 377 c-24 -19 -50 -60 -50 -79 0 -14 5 -16 23 -9 15 6 22 17 22
36 1 16 10 34 25 46 17 12 20 19 10 18 -8 0 -22 -5 -30 -12z"/>
<path d="M56 263 c-3 -4 -6 -19 -6 -35 0 -25 3 -28 35 -28 40 0 41 2 19 35
-16 25 -38 38 -48 28z"/>
<path d="M206 253 c-6 -14 -5 -15 5 -6 7 7 10 15 7 18 -3 3 -9 -2 -12 -12z"/>
</g>
</svg>
