<svg id="reading" xmlns="http://www.w3.org/2000/svg" width="22" height="25.031" viewBox="0 0 22 25.031">
  <g id="Group_57978" data-name="Group 57978" transform="translate(0.367 0.367)">
    <g id="Group_57976" data-name="Group 57976" transform="translate(0)">
      <path id="Path_315" data-name="Path 315" d="M162.5,116.461c0,2.615,2.24,4.127,4.571,4.571,2.331-.444,4.571-1.956,4.571-4.571v-2.493h-2.2a1.467,1.467,0,0,1-1.467-1.467,1.467,1.467,0,0,1-1.467,1.467H162.5v2.493Z" transform="translate(-156.438 -107.368)" fill="#fbf2e2" fill-rule="evenodd"/>
      <path id="Path_316" data-name="Path 316" d="M144.016,14.1a1.467,1.467,0,0,0,1.467-1.467,1.467,1.467,0,0,0,1.467,1.467h3.031a2.152,2.152,0,0,0-.253-2.518,1.307,1.307,0,0,0-1.5-2.053,2.66,2.66,0,0,0-4.728-.944,1.687,1.687,0,0,0-2.762.871,1.686,1.686,0,0,0-1.441,2.815,1.925,1.925,0,0,0-.118,1.828Z" transform="translate(-133.945 -7.5)" fill="#00393a" fill-rule="evenodd"/>
      <path id="Path_317" data-name="Path 317" d="M130.162,144.994V142.5h-.831a.834.834,0,0,0-.831.831v.831a.834.834,0,0,0,.831.831h.831Z" transform="translate(-124.1 -135.901)" fill="#f7e0ba" fill-rule="evenodd"/>
      <path id="Path_318" data-name="Path 318" d="M349.5,142.5v2.493h.831a.834.834,0,0,0,.831-.831v-.831a.834.834,0,0,0-.831-.831H349.5Z" transform="translate(-334.295 -135.9)" fill="#f7e0ba" fill-rule="evenodd"/>
      <path id="Path_319" data-name="Path 319" d="M211.133,270.487a7.162,7.162,0,0,1-2.306-.849v1.931l2.306.384,2.306-.384v-1.931A7.162,7.162,0,0,1,211.133,270.487Z" transform="translate(-200.5 -256.822)" fill="#fbf2e2" fill-rule="evenodd"/>
      <path id="Path_320" data-name="Path 320" d="M127.6,295.6l-6.6-1.1v5.867a.735.735,0,0,1,.733.733v1.467a.735.735,0,0,1-.733.733h13.2a.736.736,0,0,1-.733-.733V301.1a.735.735,0,0,1,.733-.733V294.5Z" transform="translate(-116.967 -280.469)" fill="#fff" fill-rule="evenodd"/>
      <path id="Path_321" data-name="Path 321" d="M92.467,332.943v-4.192A2.162,2.162,0,0,0,91,330.743v2.933a.735.735,0,0,1,.733-.733Zm13.2-4.192v4.192h.733a.735.735,0,0,1,.733.733v-2.933A2.162,2.162,0,0,0,105.667,328.751Z" transform="translate(-88.433 -313.045)" fill="#c7efbc" fill-rule="evenodd"/>
      <path id="Path_322" data-name="Path 322" d="M92.467,393.1V392h-.733a1.821,1.821,0,0,0-.733.153v1.68a.736.736,0,0,1,.733-.733Zm13.2,0V392h.733a1.821,1.821,0,0,1,.733.153v1.68a.736.736,0,0,0-.733-.733Z" transform="translate(-88.433 -373.202)" fill="#80b314" fill-rule="evenodd"/>
      <path id="Path_323" data-name="Path 323" d="M38.5,474.5H59.768v1.467H38.5Z" transform="translate(-38.501 -451.669)" fill="#80b314" fill-rule="evenodd"/>
      <path id="Path_324" data-name="Path 324" d="M104.933,415.233V416.7a.736.736,0,0,0,.733.733h.733a.736.736,0,0,0,.733-.733v-1.467a.735.735,0,0,0-.733-.733h-.733A.736.736,0,0,0,104.933,415.233ZM92.467,414.5h-.733a.736.736,0,0,0-.733.733V416.7a.736.736,0,0,0,.733.733h.733a.736.736,0,0,0,.733-.733v-1.467A.735.735,0,0,0,92.467,414.5Z" transform="translate(-88.433 -394.602)" fill="#fbf2e2" fill-rule="evenodd"/>
      <path id="Path_325" data-name="Path 325" d="M38.5,474.5h1.1v1.467H38.5Z" transform="translate(-38.501 -451.669)" fill="#b2ec35" fill-rule="evenodd"/>
      <path id="Path_326" data-name="Path 326" d="M91,437v1.1a.736.736,0,0,0,.733.733h.733a.736.736,0,0,0,.733-.733v-.367H91.733A.736.736,0,0,1,91,437Zm13.933.733v.367a.736.736,0,0,0,.733.733h.733a.736.736,0,0,0,.733-.733V437a.736.736,0,0,1-.733.733Z" transform="translate(-88.433 -416.002)" fill="#f7e0ba" fill-rule="evenodd"/>
      <path id="Path_327" data-name="Path 327" d="M122.1,294.684,121,294.5v5.867a.736.736,0,0,1,.733.733v1.467a.735.735,0,0,1-.733.733h13.2a.735.735,0,0,1-.733-.733V302.2H122.833v-1.1a1.832,1.832,0,0,0-.733-1.465v-4.951Z" transform="translate(-116.967 -280.47)" fill="#e5e5e5" fill-rule="evenodd"/>
      <path id="Path_328" data-name="Path 328" d="M162.5,144.994c0,2.615,2.24,4.127,4.571,4.571q.276-.053.55-.125c-2.121-.565-4.021-2.037-4.021-4.446V142.5h-1.1v2.493Z" transform="translate(-156.438 -135.901)" fill="#f7e0ba" fill-rule="evenodd"/>
      <path id="Path_329" data-name="Path 329" d="M142.917,21.08a1.688,1.688,0,0,0-2.181,1.209A1.686,1.686,0,0,0,139.3,25.1a1.925,1.925,0,0,0-.118,1.828H140.4c-.389-.589-.409-.9.294-1.93l-.589-.642a.587.587,0,0,1,.5-.978l.973.114A2.517,2.517,0,0,1,142.917,21.08Z" transform="translate(-133.946 -20.332)" fill="#00393a" fill-rule="evenodd"/>
      <path id="Path_330" data-name="Path 330" d="M209.927,270.156a6.6,6.6,0,0,1-1.1-.518v1.931l1.1.183Z" transform="translate(-200.5 -256.822)" fill="#f7e0ba" fill-rule="evenodd"/>
    </g>
    <g id="Group_57977" data-name="Group 57977" transform="translate(10.962 1.467)">
      <path id="Path_331" data-name="Path 331" d="M264.929,38.967H264.2v-.733h.733Zm-1.467-.733h-.733V37.5h.733Z" transform="translate(-262.729 -37.5)" fill="#fff"/>
    </g>
  </g>
  <g id="Group_57979" data-name="Group 57979">
    <path id="Path_334" data-name="Path 334" d="M413.5,497h.733v.733H413.5Z" transform="translate(-394.799 -472.702)"/>
    <path id="Path_335" data-name="Path 335" d="M50.37,22.831a1.094,1.094,0,0,0,.063-.367v-4.4a2.48,2.48,0,0,0-1.467-2.227V13.965l-4.294.716V13.387a5.7,5.7,0,0,0,.789-.606,4.429,4.429,0,0,0,1.462-2.955H47.4a1.2,1.2,0,0,0,1.2-1.2V7.8a1.2,1.2,0,0,0-.665-1.072,2.621,2.621,0,0,0,.118-1.061,2.444,2.444,0,0,0-.437-1.245,1.675,1.675,0,0,0-1.725-2.472A3.026,3.026,0,0,0,40.858.954a2.054,2.054,0,0,0-2.965.992,2.046,2.046,0,0,0-1.532.764l.57.461a1.318,1.318,0,0,1,1.183-.483l.324.038.075-.318a1.32,1.32,0,0,1,2.161-.682l.3.268.238-.324a2.293,2.293,0,0,1,4.076.813l.1.42.4-.169a.939.939,0,0,1,.887.084.923.923,0,0,1,.42.782.94.94,0,0,1-.225.611l-.234.273.269.239A1.86,1.86,0,0,1,47.2,6.6H44.371a1.1,1.1,0,0,1-1.1-1.1h-.733a1.1,1.1,0,0,1-1.1,1.1h-4.6a1.663,1.663,0,0,1,.184-1.255l.163-.24-.2-.214A1.316,1.316,0,0,1,36.639,4a1.33,1.33,0,0,1,.038-.317l-.712-.175a2.059,2.059,0,0,0,.311,1.668A2.476,2.476,0,0,0,36.1,6.707,1.2,1.2,0,0,0,35.4,7.8v.831a1.2,1.2,0,0,0,1.2,1.2h.479a4.429,4.429,0,0,0,1.462,2.954,5.7,5.7,0,0,0,.789.606v1.294l-4.294-.716v1.872a2.48,2.48,0,0,0-1.467,2.227v4.4a1.1,1.1,0,0,0,.063.367H31v2.2H48.967V24.3H31.733v-.733H52.267V24.3h-1.1v.733H53v-2.2Zm-.67-4.767v1.9a1.1,1.1,0,0,0-.367-.063h-.367V16.692A1.666,1.666,0,0,1,49.7,18.064Zm-1.467,1.9A1.1,1.1,0,0,0,47.5,21v1.467a1.1,1.1,0,0,0,.063.367h-5.2V15.808l5.867-.978ZM47.867,8.629a.465.465,0,0,1-.464.464h-.464V7.333H47.4a.465.465,0,0,1,.464.464Zm-11.733,0V7.8a.465.465,0,0,1,.464-.464h.464v1.76H36.6A.465.465,0,0,1,36.133,8.629ZM37.8,9.46V7.333h3.642A1.832,1.832,0,0,0,42.9,6.6a1.832,1.832,0,0,0,1.467.734H46.2V9.46a3.662,3.662,0,0,1-1.24,2.782A6.185,6.185,0,0,1,42,13.658a6.185,6.185,0,0,1-2.964-1.415A3.662,3.662,0,0,1,37.8,9.46Zm2.265,4.333a7.8,7.8,0,0,0,1.871.6L42,14.4l.069-.013a7.8,7.8,0,0,0,1.871-.6V14.8L42,15.126,40.06,14.8Zm1.573,2.016v7.023h-5.2a1.094,1.094,0,0,0,.063-.367V21a1.1,1.1,0,0,0-.733-1.037v-5.13ZM34.3,18.064a1.666,1.666,0,0,1,.733-1.373V19.9h-.367a1.1,1.1,0,0,0-.367.063Zm.367,4.767a.367.367,0,0,1-.367-.367V21a.367.367,0,0,1,.367-.367H35.4a.367.367,0,0,1,.367.367v1.467a.367.367,0,0,1-.367.367Zm13.933,0a.367.367,0,0,1-.367-.367V21a.367.367,0,0,1,.367-.367h.733A.367.367,0,0,1,49.7,21v1.467a.367.367,0,0,1-.367.367Z" transform="translate(-31 0)" fill="#00393a"/>
  </g>
</svg>
