<svg id="Component_14_1" data-name="Component 14 – 1" xmlns="http://www.w3.org/2000/svg" width="20" height="15" viewBox="0 0 20 15">
  <path id="id-card" d="M17.708,3H2.292A2.294,2.294,0,0,0,0,5.292V15.708A2.294,2.294,0,0,0,2.292,18H17.708A2.294,2.294,0,0,0,20,15.708V5.292A2.294,2.294,0,0,0,17.708,3ZM6.25,6.333A2.083,2.083,0,1,1,4.167,8.417,2.086,2.086,0,0,1,6.25,6.333ZM10,14.042a.625.625,0,0,1-.625.625H3.125a.625.625,0,0,1-.625-.625v-.417a2.294,2.294,0,0,1,2.292-2.292H7.708A2.294,2.294,0,0,1,10,13.625Zm6.875.625H12.292a.625.625,0,0,1,0-1.25h4.583a.625.625,0,0,1,0,1.25Zm0-3.333H12.292a.625.625,0,1,1,0-1.25h4.583a.625.625,0,1,1,0,1.25Zm0-3.333H12.292a.625.625,0,1,1,0-1.25h4.583a.625.625,0,1,1,0,1.25Z" transform="translate(0 -3)" fill="#969696"/>
</svg>
