<svg id="Component_16_1" data-name="Component 16 – 1" xmlns="http://www.w3.org/2000/svg" width="65.385" height="15.274" viewBox="0 0 65.385 15.274">
  <g id="mastercard" transform="translate(39.929)">
    <path id="Path_369" data-name="Path 369" d="M216.874,108.437a7.637,7.637,0,1,1-15.274,0h0a7.637,7.637,0,1,1,15.274,0Z" transform="translate(-191.418 -100.8)" fill="#ffb600"/>
    <path id="Path_370" data-name="Path 370" d="M209.237,100.8a7.657,7.657,0,0,1,7.637,7.637h0a7.637,7.637,0,1,1-15.274,0" transform="translate(-191.418 -100.8)" fill="#f7981d"/>
    <path id="Path_371" data-name="Path 371" d="M352.8,100.8a7.657,7.657,0,0,1,7.637,7.637h0a7.631,7.631,0,0,1-7.637,7.637" transform="translate(-334.981 -100.8)" fill="#ff8500"/>
    <path id="Path_372" data-name="Path 372" d="M7.556,100.8a7.637,7.637,0,0,0,.081,15.274,7.726,7.726,0,0,0,5.132-1.98h0a7.261,7.261,0,0,0,.768-.808H11.96a9.321,9.321,0,0,1-.566-.768H14.1a5.176,5.176,0,0,0,.444-.808h-3.6a4.816,4.816,0,0,1-.323-.808h4.2a8.023,8.023,0,0,0,.4-2.424,10.43,10.43,0,0,0-.162-1.616H10.384a5.907,5.907,0,0,1,.2-.808h4.2a4.815,4.815,0,0,0-.323-.808H10.91a8.015,8.015,0,0,1,.444-.808h2.707a3.842,3.842,0,0,0-.606-.808h-1.5a6.887,6.887,0,0,1,.768-.768,7.456,7.456,0,0,0-5.132-1.98C7.6,100.8,7.6,100.8,7.556,100.8Z" transform="translate(0 -100.8)" fill="#ff5050"/>
    <path id="Path_373" data-name="Path 373" d="M0,109.956a7.631,7.631,0,0,0,7.637,7.637,7.726,7.726,0,0,0,5.132-1.98h0a7.261,7.261,0,0,0,.768-.808H11.96a9.325,9.325,0,0,1-.566-.768H14.1a5.178,5.178,0,0,0,.444-.808h-3.6a4.816,4.816,0,0,1-.323-.808h4.2a8.023,8.023,0,0,0,.4-2.424,10.429,10.429,0,0,0-.162-1.616H10.384a5.907,5.907,0,0,1,.2-.808h4.2a4.814,4.814,0,0,0-.323-.808H10.91a8.011,8.011,0,0,1,.444-.808h2.707a3.843,3.843,0,0,0-.606-.808h-1.5a6.885,6.885,0,0,1,.768-.768A7.456,7.456,0,0,0,7.6,102.4h-.04" transform="translate(0 -102.319)" fill="#e52836"/>
    <path id="Path_374" data-name="Path 374" d="M149.681,117.593a7.726,7.726,0,0,0,5.132-1.98h0a7.26,7.26,0,0,0,.768-.808H154a9.329,9.329,0,0,1-.566-.768h2.707a5.178,5.178,0,0,0,.444-.808h-3.6a4.817,4.817,0,0,1-.323-.808h4.2a8.024,8.024,0,0,0,.4-2.424,10.431,10.431,0,0,0-.162-1.616h-4.687a5.91,5.91,0,0,1,.2-.808h4.2a4.821,4.821,0,0,0-.323-.808h-3.556a8.014,8.014,0,0,1,.444-.808h2.707a3.843,3.843,0,0,0-.606-.808H154a6.887,6.887,0,0,1,.768-.768,7.456,7.456,0,0,0-5.132-1.98h-.04" transform="translate(-142.044 -102.319)" fill="#cb2026"/>
    <g id="Group_272" data-name="Group 272" transform="translate(0.727 5.657)">
      <path id="Path_375" data-name="Path 375" d="M182.772,223.556l.121-.687a1.75,1.75,0,0,1-.2.04c-.283,0-.323-.162-.283-.242l.242-1.414h.444l.121-.768h-.4l.081-.485h-.808s-.485,2.667-.485,2.99a.607.607,0,0,0,.647.687A1.24,1.24,0,0,0,182.772,223.556Z" transform="translate(-173.155 -219.636)" fill="#fff"/>
      <path id="Path_376" data-name="Path 376" d="M210.4,230.522a1.285,1.285,0,0,0,1.414,1.414,2.1,2.1,0,0,0,.849-.121l.162-.768a2.422,2.422,0,0,1-.849.2c-.889,0-.727-.646-.727-.646h1.657a5.239,5.239,0,0,0,.121-.727,1.1,1.1,0,0,0-1.172-1.172C211.006,228.623,210.4,229.512,210.4,230.522Zm1.414-1.172c.444,0,.364.525.364.566h-.889C211.289,229.876,211.37,229.35,211.814,229.35Z" transform="translate(-200.5 -227.896)" fill="#fff"/>
      <path id="Path_377" data-name="Path 377" d="M298.222,216.719l.162-.889a1.985,1.985,0,0,1-.687.2c-.566,0-.808-.444-.808-.929,0-.97.485-1.5,1.051-1.5a1.349,1.349,0,0,1,.727.242l.121-.849a2.841,2.841,0,0,0-.929-.2c-.929,0-1.859.808-1.859,2.344,0,1.01.485,1.7,1.455,1.7A3.626,3.626,0,0,0,298.222,216.719Z" transform="translate(-281.777 -212.8)" fill="#fff"/>
      <path id="Path_378" data-name="Path 378" d="M87.935,227.2a2.862,2.862,0,0,0-.97.162l-.121.687a2.388,2.388,0,0,1,.889-.162c.283,0,.525.04.525.283,0,.162-.04.2-.04.2h-.364c-.687,0-1.455.283-1.455,1.212,0,.727.485.889.768.889a1.214,1.214,0,0,0,.849-.364l-.04.323H88.7l.323-2.222A.958.958,0,0,0,87.935,227.2Zm.162,1.818c0,.121-.081.768-.566.768a.315.315,0,0,1-.323-.323c0-.2.121-.485.727-.485A.637.637,0,0,0,88.1,229.018Z" transform="translate(-82.763 -226.473)" fill="#fff"/>
      <path id="Path_379" data-name="Path 379" d="M136.129,229.713a1.036,1.036,0,0,0,1.212-1.051c0-1.01-.97-.808-.97-1.212,0-.2.162-.283.444-.283.121,0,.566.04.566.04l.121-.727a3.068,3.068,0,0,0-.768-.081c-.606,0-1.212.242-1.212,1.051,0,.929,1.01.849,1.01,1.212,0,.242-.283.283-.485.283a2.642,2.642,0,0,1-.727-.121l-.121.727C135.24,229.633,135.442,229.713,136.129,229.713Z" transform="translate(-129.099 -225.713)" fill="#fff"/>
      <path id="Path_380" data-name="Path 380" d="M429.5,214.4l-.162,1.091a1.121,1.121,0,0,0-.768-.4c-.727,0-1.374.889-1.374,1.94,0,.646.323,1.333,1.01,1.333a1.078,1.078,0,0,0,.768-.323l-.04.283h.808l.606-3.879Zm-.364,2.142c0,.444-.2,1.01-.647,1.01-.283,0-.444-.242-.444-.646,0-.647.283-1.051.647-1.051C428.978,215.855,429.139,216.057,429.139,216.542Z" transform="translate(-406.35 -214.319)" fill="#fff"/>
      <path id="Path_381" data-name="Path 381" d="M15.168,218.279l.485-2.909.081,2.909H16.3l1.051-2.909-.444,2.909h.849L18.4,214.4H17.067l-.808,2.384-.04-2.384H15.047l-.647,3.879Z" transform="translate(-14.4 -214.319)" fill="#fff"/>
      <path id="Path_382" data-name="Path 382" d="M260.889,231.952c.242-1.333.283-2.424.849-2.222a3.172,3.172,0,0,1,.283-.929h-.162c-.364,0-.646.485-.646.485l.081-.444h-.768L260,231.992h.889Z" transform="translate(-247.595 -227.992)" fill="#fff"/>
      <path id="Path_383" data-name="Path 383" d="M347.935,227.2a2.862,2.862,0,0,0-.97.162l-.121.687a2.389,2.389,0,0,1,.889-.162c.283,0,.525.04.525.283,0,.162-.04.2-.04.2h-.364c-.687,0-1.455.283-1.455,1.212,0,.727.485.889.768.889a1.214,1.214,0,0,0,.848-.364l-.04.323h.727l.323-2.222A.943.943,0,0,0,347.935,227.2Zm.2,1.818c0,.121-.081.768-.566.768a.315.315,0,0,1-.323-.323c0-.2.121-.485.727-.485C348.1,229.018,348.1,229.018,348.138,229.018Z" transform="translate(-329.631 -226.473)" fill="#fff"/>
      <path id="Path_384" data-name="Path 384" d="M395.289,231.952c.242-1.333.283-2.424.849-2.222a3.17,3.17,0,0,1,.283-.929h-.162c-.364,0-.647.485-.647.485l.081-.444h-.768l-.525,3.152h.889Z" transform="translate(-375.207 -227.992)" fill="#fff"/>
    </g>
  </g>
  <g id="visa" transform="translate(0 2.019)">
    <path id="Path_395" data-name="Path 395" d="M184.8,190.988l1.882-10.588h2.941L187.8,190.988Z" transform="translate(-171.212 -180.047)" fill="#3c58bf"/>
    <path id="Path_396" data-name="Path 396" d="M184.8,190.988l2.412-10.588h2.412L187.8,190.988Z" transform="translate(-171.212 -180.047)" fill="#293688"/>
    <path id="Path_397" data-name="Path 397" d="M257,176.071a7.46,7.46,0,0,0-2.706-.471c-2.941,0-5.059,1.471-5.059,3.588,0,1.588,1.471,2.412,2.647,2.941s1.529.882,1.529,1.353c0,.706-.941,1.059-1.765,1.059a6.394,6.394,0,0,1-2.823-.588l-.412-.176L248,186.188a9.537,9.537,0,0,0,3.353.588c3.118,0,5.176-1.471,5.176-3.706,0-1.235-.765-2.176-2.529-2.941-1.059-.529-1.706-.824-1.706-1.353,0-.471.529-.941,1.706-.941a5.4,5.4,0,0,1,2.235.412l.294.118.471-2.294Z" transform="translate(-229.765 -175.6)" fill="#3c58bf"/>
    <path id="Path_398" data-name="Path 398" d="M257,176.071a7.46,7.46,0,0,0-2.706-.471c-2.941,0-4.529,1.471-4.529,3.588a3.075,3.075,0,0,0,2.118,2.941c1.176.529,1.529.882,1.529,1.353,0,.706-.941,1.059-1.765,1.059a6.394,6.394,0,0,1-2.823-.588l-.412-.176L248,186.188a9.537,9.537,0,0,0,3.353.588c3.118,0,5.176-1.471,5.176-3.706,0-1.235-.765-2.176-2.529-2.941-1.059-.529-1.706-.824-1.706-1.353,0-.471.529-.941,1.706-.941a5.4,5.4,0,0,1,2.235.412l.294.118.471-2.294Z" transform="translate(-229.765 -175.6)" fill="#293688"/>
    <path id="Path_399" data-name="Path 399" d="M364.341,180.4c-.706,0-1.235.059-1.529.765l-4.412,9.823h3.176l.588-1.765h3.765l.353,1.765h2.823L366.635,180.4Zm-1.353,7.059c.176-.529,1.176-3.118,1.176-3.118s.235-.647.412-1.059l.176,1s.588,2.647.706,3.235h-2.471Z" transform="translate(-332.047 -180.047)" fill="#3c58bf"/>
    <path id="Path_400" data-name="Path 400" d="M365.047,180.4c-.706,0-1.235.059-1.529.765l-5.118,9.823h3.176l.588-1.765h3.765l.353,1.765h2.823L366.635,180.4Zm-2.059,7.059c.235-.588,1.176-3.118,1.176-3.118s.235-.647.412-1.059l.177,1s.588,2.647.706,3.235h-2.471Z" transform="translate(-332.048 -180.047)" fill="#293688"/>
    <path id="Path_401" data-name="Path 401" d="M55.612,188.553l-.294-1.529a8.527,8.527,0,0,0-4.118-4.647l2.647,9.412h3.176L61.788,181.2H58.612Z" transform="translate(-47.435 -180.788)" fill="#3c58bf"/>
    <path id="Path_402" data-name="Path 402" d="M55.612,188.553l-.294-1.529a8.527,8.527,0,0,0-4.118-4.647l2.647,9.412h3.176L61.788,181.2H59.2Z" transform="translate(-47.435 -180.788)" fill="#293688"/>
    <path id="Path_403" data-name="Path 403" d="M0,180.4l.529.118c3.765.882,6.353,3.118,7.353,5.765l-1.059-5c-.176-.706-.706-.882-1.353-.882Z" transform="translate(0 -180.047)" fill="#ffbc00"/>
    <path id="Path_404" data-name="Path 404" d="M0,180.4H0c3.765.882,6.882,3.176,7.882,5.823l-1-4.176a1.436,1.436,0,0,0-1.412-1.118Z" transform="translate(0 -180.047)" fill="#f7981d"/>
    <path id="Path_405" data-name="Path 405" d="M0,180.4H0c3.765.882,6.882,3.176,7.882,5.823l-.706-2.294a2.075,2.075,0,0,0-1.235-1.706Z" transform="translate(0 -180.047)" fill="#ed7c00"/>
    <g id="Group_274" data-name="Group 274" transform="translate(3.823 1.529)">
      <path id="Path_406" data-name="Path 406" d="M59.294,202.282l-2-2-.941,2.235-.235-1.471A8.527,8.527,0,0,0,52,196.4l2.647,9.412h3.176Z" transform="translate(-52 -196.4)" fill="#051244"/>
      <path id="Path_407" data-name="Path 407" d="M187.8,291.788l-2.529-2.588-.471,2.588Z" transform="translate(-175.035 -282.377)" fill="#051244"/>
      <path id="Path_408" data-name="Path 408" d="M253.118,274.8h0c.235.235.353.412.294.647,0,.706-.941,1.059-1.765,1.059a6.393,6.393,0,0,1-2.824-.588l-.412-.176L248,278.153a9.538,9.538,0,0,0,3.353.588,5.824,5.824,0,0,0,4.294-1.471Z" transform="translate(-233.589 -269.035)" fill="#051244"/>
      <path id="Path_409" data-name="Path 409" d="M364,227.306h2.765l.588-1.765h3.765l.353,1.765h2.823l-1-4.294-3.529-3.412.177.941s.588,2.647.706,3.235h-2.47c.235-.588,1.176-3.118,1.176-3.118s.235-.647.412-1.059" transform="translate(-341.059 -217.894)" fill="#051244"/>
    </g>
  </g>
</svg>
