<svg id="Component_21_1" data-name="Component 21 – 1" xmlns="http://www.w3.org/2000/svg" xmlns:xlink="http://www.w3.org/1999/xlink" width="1000" height="400" viewBox="0 0 1000 400">
  <defs>
    <clipPath id="clip-path">
      <rect id="Rectangle_102" data-name="Rectangle 102" width="1000" height="389" rx="24" fill="#fff"/>
    </clipPath>
  </defs>
  <path id="Path_812" data-name="Path 812" d="M74.71,0H890.29C931.551,0,965,37.656,965,84.108V304.892C965,351.344,931.551,389,890.29,389H74.71C33.449,389,0,351.344,0,304.892V84.108C0,37.656,33.449,0,74.71,0Z" transform="translate(18)" fill="#00393a"/>
  <rect id="Rectangle_23" data-name="Rectangle 23" width="978" height="389" rx="24" transform="translate(11 5)" fill="#80b314"/>
  <g id="Mask_Group_1" data-name="Mask Group 1" transform="translate(0 11)" clip-path="url(#clip-path)">
    <rect id="Rectangle_101" data-name="Rectangle 101" width="1000" height="389" rx="24" fill="#fff"/>
    <g id="Group_126" data-name="Group 126" transform="translate(-159.42 194.5)" opacity="0.74">
      <path id="Path_23" data-name="Path 23" d="M-129.763-199.353s.617,52.21,74.027,7.032C47.02-255.611,68.875-32.708,156.914-116.137S243.19,12.9,310.52-66.8,357.4,128.5,426.935,69.9L-152.5,185.72Z" transform="translate(194.008 231.531)" fill="#00393a"/>
      <rect id="Rectangle_30" data-name="Rectangle 30" width="608.288" height="345.223" transform="translate(0 52.108)" fill="none" opacity="0.3"/>
      <g id="Group_40" data-name="Group 40" transform="translate(53.713 113.156)">
        <path id="Path_24" data-name="Path 24" d="M385.624,33.692s-112.891-182.2-131.133-79.487S196.063-139.878,109.61-83.726C23.069-27.361-29.63-215.21-46.11-115.372S-92.553-220.963-169.4-132.1l31.021,257.852Z" transform="translate(169.4 155)" fill="#f2f2f2"/>
      </g>
      <path id="Path_25" data-name="Path 25" d="M-97.6-81.9S-90.638,147.818,16.084,29.228s68.21,95.149,132.279,1.811C212.343-62.3,251.647,157.834,406.487,92.093" transform="translate(187.49 182.807)" fill="none" stroke="#2d2d2d" stroke-miterlimit="10" stroke-width="0.167"/>
      <path id="Path_26" data-name="Path 26" d="M-97.5-81.39S-89.392,145.562,16.713,27.824s69.444,96,134.394,3.41C216.144-61.359,255.008,158.667,406.5,94.2" transform="translate(187.478 180.589)" fill="none" stroke="#2c2c2c" stroke-miterlimit="10" stroke-width="0.166"/>
      <path id="Path_27" data-name="Path 27" d="M-97.4-81.024s9.165,224.182,114.83,107.3,70.59,96.854,136.6,5.008c66.007-91.74,104.519,127.967,252.66,65" transform="translate(187.466 178.624)" fill="none" stroke="#2b2b2b" stroke-miterlimit="10" stroke-width="0.166"/>
      <path id="Path_28" data-name="Path 28" d="M-97.3-80.495S-86.989,141.023,18.146,24.884s71.647,97.6,138.712,6.606S262.082,159.989,406.787,98.4" transform="translate(187.454 176.39)" fill="none" stroke="#2a2a2a" stroke-miterlimit="10" stroke-width="0.165"/>
      <path id="Path_29" data-name="Path 29" d="M-97.3-80.144S-85.843,138.6,18.675,23.316s72.881,98.453,140.915,8.311,105.841,129.032,247.2,68.938" transform="translate(187.454 174.334)" fill="none" stroke="#292929" stroke-miterlimit="10" stroke-width="0.164"/>
      <path id="Path_30" data-name="Path 30" d="M-97.2-79.629S-84.6,136.348,19.392,21.913s74.115,99.3,143.118,9.909,106.457,129.565,244.464,70.856" transform="translate(187.442 172.115)" fill="none" stroke="#282828" stroke-miterlimit="10" stroke-width="0.164"/>
      <path id="Path_31" data-name="Path 31" d="M-97.1-79.191S-83.352,134.017,20.109,20.434s75.26,100.157,145.233,11.507,107.074,130.1,241.732,72.88" transform="translate(187.43 169.971)" fill="none" stroke="#272727" stroke-miterlimit="10" stroke-width="0.163"/>
      <path id="Path_32" data-name="Path 32" d="M-97-78.695s14.805,210.437,117.738,97.6,76.406,100.9,147.437,13.106c70.942-87.8,107.779,130.631,239,74.8" transform="translate(187.418 167.878)" fill="none" stroke="#262626" stroke-miterlimit="10" stroke-width="0.162"/>
      <path id="Path_33" data-name="Path 33" d="M-96.9-78.376S-80.949,129.291,21.455,17.306C123.77-94.572,99.006,119.062,171.006,32.117S279.4,163.28,407.275,108.94" transform="translate(187.407 165.854)" fill="none" stroke="#252525" stroke-miterlimit="10" stroke-width="0.162"/>
      <path id="Path_34" data-name="Path 34" d="M-96.9-77.892S-79.8,127,22.071,15.872,100.857,118.48,173.826,32.281s109.013,131.7,233.537,78.741" transform="translate(187.407 163.665)" fill="none" stroke="#242424" stroke-miterlimit="10" stroke-width="0.161"/>
      <path id="Path_35" data-name="Path 35" d="M-96.8-77.516S-78.558,124.61,22.7,14.331s79.931,103.354,153.87,18.007C250.6-53.009,286.288,164.673,407.463,113.1" transform="translate(187.395 161.584)" fill="none" stroke="#232323" stroke-miterlimit="10" stroke-width="0.161"/>
      <path id="Path_36" data-name="Path 36" d="M-96.7-77.122S-77.312,122.34,23.417,12.807C124.146-96.621,104.582,117.013,179.49,32.412s110.247,132.762,228.073,82.683" transform="translate(187.383 159.592)" fill="none" stroke="#222" stroke-miterlimit="10" stroke-width="0.16"/>
      <path id="Path_37" data-name="Path 37" d="M-96.6-76.759S-76.155,119.933,24.134,11.252s82.311,105.059,158.276,21.2c75.877-83.855,110.864,133.4,225.253,84.708" transform="translate(187.371 157.524)" fill="none" stroke="#212121" stroke-miterlimit="10" stroke-width="0.16"/>
      <path id="Path_38" data-name="Path 38" d="M-96.5-76.382S-74.909,117.539,24.763,9.71s83.456,105.8,160.391,22.8,111.569,133.934,222.609,86.732" transform="translate(187.359 155.443)" fill="none" stroke="#202020" stroke-miterlimit="10" stroke-width="0.159"/>
      <path id="Path_39" data-name="Path 39" d="M-96.5-76.013S-73.763,115.139,25.38,8.162s84.69,106.657,162.594,24.4S300.16,167.029,407.851,121.319" transform="translate(187.359 153.368)" fill="none" stroke="#1f1f1f" stroke-miterlimit="10" stroke-width="0.158"/>
      <path id="Path_40" data-name="Path 40" d="M-96.4-75.606S-72.518,112.775,26.1,6.651s85.836,107.4,164.709,26,112.8,135,217.145,90.568" transform="translate(187.347 151.363)" fill="none" stroke="#1e1e1e" stroke-miterlimit="10" stroke-width="0.158"/>
      <path id="Path_41" data-name="Path 41" d="M-96.3-75.256S-71.272,110.355,26.725,5.083s86.981,108.255,166.913,27.6c79.931-80.552,113.508,135.532,214.413,92.592" transform="translate(187.335 149.309)" fill="none" stroke="#1d1d1d" stroke-miterlimit="10" stroke-width="0.157"/>
      <path id="Path_42" data-name="Path 42" d="M-96.2-75.013S-70.114,107.827,27.442,3.408s88.127,109.108,169.028,29.3,114.125,136.065,211.681,94.617" transform="translate(187.323 147.361)" fill="none" stroke="#1c1c1c" stroke-miterlimit="10" stroke-width="0.156"/>
      <path id="Path_43" data-name="Path 43" d="M-96.1-74.6S-68.869,105.466,28.159,1.9,117.52,111.859,199.39,32.8s114.741,136.6,208.949,96.535" transform="translate(187.312 145.247)" fill="none" stroke="#1b1b1b" stroke-miterlimit="10" stroke-width="0.156"/>
      <path id="Path_44" data-name="Path 44" d="M-96-74.283S-67.623,103.124,28.788.3C125.2-102.625,119.294,110.9,202.134,32.694c82.928-78.208,115.358,137.13,206.217,98.559" transform="translate(187.3 143.327)" fill="none" stroke="#1a1a1a" stroke-miterlimit="10" stroke-width="0.155"/>
      <path id="Path_45" data-name="Path 45" d="M-96-73.992S-66.477,100.644,29.4-1.324s91.652,111.558,175.549,34.1S320.929,170.435,408.439,133.249" transform="translate(187.3 141.332)" fill="none" stroke="#191919" stroke-miterlimit="10" stroke-width="0.155"/>
      <path id="Path_46" data-name="Path 46" d="M-95.9-73.589S-65.232,98.276,30.034-2.946c95.353-101.116,92.886,112.411,177.752,35.694,84.866-76.61,116.68,138.2,200.753,102.5" transform="translate(187.288 139.224)" fill="none" stroke="#181818" stroke-miterlimit="10" stroke-width="0.154"/>
      <path id="Path_47" data-name="Path 47" d="M-95.8-73.336S-64.074,95.76,30.75-4.611s94.032,113.263,179.867,37.4,117.3,138.835,198.021,104.419" transform="translate(187.276 137.266)" fill="none" stroke="#171717" stroke-miterlimit="10" stroke-width="0.153"/>
      <path id="Path_48" data-name="Path 48" d="M-95.7-73.053S-62.829,93.272,31.467-6.246s95.177,114.009,182.07,39S331.452,172.12,408.827,139.2" transform="translate(187.264 135.278)" fill="none" stroke="#161616" stroke-miterlimit="10" stroke-width="0.153"/>
      <path id="Path_49" data-name="Path 49" d="M-95.6-72.78S-61.583,90.774,32.1-7.891,128.507,106.97,216.282,32.7,334.9,172.5,408.927,141.066" transform="translate(187.252 133.408)" fill="none" stroke="#161616" stroke-miterlimit="10" stroke-width="0.152"/>
      <path id="Path_50" data-name="Path 50" d="M-95.6-72.536S-60.437,88.249,32.713-9.564,130.27,106.043,219.1,32.629c88.92-73.413,119.236,140.433,189.914,110.386" transform="translate(187.252 131.458)" fill="none" stroke="#151515" stroke-miterlimit="10" stroke-width="0.152"/>
      <path id="Path_51" data-name="Path 51" d="M-95.5-72.2S-59.192,85.813,33.43-11.147s98.7,116.46,188.592,43.792S341.874,173.611,409.2,144.949" transform="translate(187.24 129.418)" fill="none" stroke="#141414" stroke-miterlimit="10" stroke-width="0.151"/>
      <path id="Path_52" data-name="Path 52" d="M-95.4-72.058S-58.034,83.292,34.059-12.923s99.936,117.312,190.8,45.5c90.771-71.921,120.47,141.5,184.362,114.329" transform="translate(187.228 127.571)" fill="none" stroke="#131313" stroke-miterlimit="10" stroke-width="0.15"/>
      <path id="Path_53" data-name="Path 53" d="M-95.3-71.744S-56.788,80.836,34.776-14.527s101.082,118.058,192.91,46.989,121.087,142.032,181.63,116.246" transform="translate(187.217 125.659)" fill="none" stroke="#121212" stroke-miterlimit="10" stroke-width="0.15"/>
      <path id="Path_54" data-name="Path 54" d="M-95.2-71.624s39.657,149.81,130.692,55.3S137.72,102.586,230.518,32.369,352.221,174.933,409.5,150.64" transform="translate(187.205 123.834)" fill="none" stroke="#111" stroke-miterlimit="10" stroke-width="0.149"/>
      <path id="Path_55" data-name="Path 55" d="M-95.2-71.33S-54.4,75.71,36.021-17.948c90.506-93.658,103.373,119.763,197.228,50.292S355.658,175.441,409.5,152.533" transform="translate(187.205 121.834)" fill="none" stroke="#101010" stroke-miterlimit="10" stroke-width="0.149"/>
      <path id="Path_56" data-name="Path 56" d="M-95.1-71.132S-53.152,73.137,36.738-19.668,141.345,100.84,236.17,32.222,359.195,175.852,409.6,154.435" transform="translate(187.193 119.932)" fill="none" stroke="#0f0f0f" stroke-miterlimit="10" stroke-width="0.148"/>
      <path id="Path_57" data-name="Path 57" d="M-95-70.958s43.006,141.5,132.455,49.546S143.207,99.842,239,31.969s123.642,144.269,170.79,124.238" transform="translate(187.181 118.16)" fill="none" stroke="#0e0e0e" stroke-miterlimit="10" stroke-width="0.147"/>
      <path id="Path_58" data-name="Path 58" d="M-94.9-70.8S-50.748,67.933,38.084-23.168s106.9,122.107,203.75,55.087,124.259,144.8,168.058,126.156" transform="translate(187.169 116.293)" fill="none" stroke="#0d0d0d" stroke-miterlimit="10" stroke-width="0.147"/>
      <path id="Path_59" data-name="Path 59" d="M-94.8-70.544S-49.5,65.415,38.8-24.833c88.3-90.355,108.132,122.959,205.865,56.685S369.541,177.186,409.992,159.925" transform="translate(187.157 114.336)" fill="none" stroke="#0c0c0c" stroke-miterlimit="10" stroke-width="0.146"/>
      <path id="Path_60" data-name="Path 60" d="M-94.8-70.392S-48.357,62.9,39.417-26.6,148.7,97.212,247.485,31.684s125.581,145.867,162.594,130.1" transform="translate(187.157 112.479)" fill="none" stroke="#0b0b0b" stroke-miterlimit="10" stroke-width="0.146"/>
      <path id="Path_61" data-name="Path 61" d="M-94.7-70.253S-47.111,60.271,40.046-28.485C127.292-117.135,150.469,96.179,250.229,31.5S376.515,177.8,410.18,163.519" transform="translate(187.145 110.742)" fill="none" stroke="#0a0a0a" stroke-miterlimit="10" stroke-width="0.145"/>
      <path id="Path_62" data-name="Path 62" d="M-94.6-70.135S-45.954,57.619,40.763-30.285C127.48-118.082,152.42,95.125,253.149,31.3c100.817-63.93,126.815,146.933,157.131,134.04" transform="translate(187.133 108.919)" fill="none" stroke="#090909" stroke-miterlimit="10" stroke-width="0.144"/>
      <path id="Path_63" data-name="Path 63" d="M-94.5-70.02S-44.708,54.963,41.48-32.089c86.1-87.052,112.8,126.262,214.589,63.184,101.7-63.078,127.344,147.466,154.31,136.065" transform="translate(187.122 107.1)" fill="none" stroke="#080808" stroke-miterlimit="10" stroke-width="0.144"/>
      <path id="Path_64" data-name="Path 64" d="M-94.4-69.926S-43.463,52.287,42.109-33.912,156.057,93.2,258.813,30.977c102.756-62.332,128.137,148,151.667,137.983" transform="translate(187.11 105.301)" fill="none" stroke="#070707" stroke-miterlimit="10" stroke-width="0.143"/>
      <path id="Path_65" data-name="Path 65" d="M-94.4-69.838s52.083,119.443,137.126,34.1S157.82,92.119,261.633,30.639,390.387,179.171,410.568,170.647" transform="translate(187.11 103.614)" fill="none" stroke="#060606" stroke-miterlimit="10" stroke-width="0.142"/>
      <path id="Path_66" data-name="Path 66" d="M-94.3-69.672S-41.071,47,43.443-37.494,159.77,91.219,264.465,30.485s129.37,149.17,146.2,141.925" transform="translate(187.098 101.744)" fill="none" stroke="#050505" stroke-miterlimit="10" stroke-width="0.142"/>
      <path id="Path_67" data-name="Path 67" d="M-94.2-69.609s54.286,113.9,138.271,30.26S161.545,90.216,267.3,30.335s129.987,149.6,143.471,143.843" transform="translate(187.086 99.976)" fill="none" stroke="#040404" stroke-miterlimit="10" stroke-width="0.141"/>
      <path id="Path_68" data-name="Path 68" d="M-94.1-69.56S-38.668,41.678,44.788-41.218,163.407,89.2,270.129,30.064,400.821,180.194,410.868,175.932" transform="translate(187.074 98.223)" fill="none" stroke="#030303" stroke-miterlimit="10" stroke-width="0.141"/>
      <path id="Path_69" data-name="Path 69" d="M-94-69.528S-37.422,38.941,45.505-43.1,165.358,88.06,273.049,29.777,404.27,180.546,410.968,177.669" transform="translate(187.062 96.485)" fill="none" stroke="#020202" stroke-miterlimit="10" stroke-width="0.14"/>
      <path id="Path_70" data-name="Path 70" d="M-94-69.507S-36.277,36.19,46.034-45s121,132.016,229.747,74.479,131.926,151.3,135.275,149.81" transform="translate(187.062 94.866)" fill="none" stroke="#010101" stroke-miterlimit="10" stroke-width="0.14"/>
      <path id="Path_71" data-name="Path 71" d="M-93.9-69.5S-35.031,33.428,46.751-46.911,168.895,85.85,278.613,29.166C388.331-27.626,411.244,181,411.244,181" transform="translate(187.05 93.154)" fill="none" stroke="#000" stroke-miterlimit="10" stroke-width="0.139"/>
      <ellipse id="Ellipse_7" data-name="Ellipse 7" cx="1.763" cy="2.131" rx="1.763" ry="2.131" transform="translate(318.139 212.142)" fill="#ffc248"/>
      <ellipse id="Ellipse_8" data-name="Ellipse 8" cx="1.763" cy="2.131" rx="1.763" ry="2.131" transform="translate(318.139 195.627)" fill="#ffc248"/>
      <ellipse id="Ellipse_9" data-name="Ellipse 9" cx="1.763" cy="2.131" rx="1.763" ry="2.131" transform="translate(318.139 179.005)" fill="#ffc248"/>
      <ellipse id="Ellipse_10" data-name="Ellipse 10" cx="1.763" cy="2.131" rx="1.763" ry="2.131" transform="translate(318.139 162.489)" fill="#ffc248"/>
      <g id="Group_53" data-name="Group 53" transform="translate(164.157 152.154)">
        <ellipse id="Ellipse_19" data-name="Ellipse 19" cx="1.393" cy="1.684" rx="1.393" ry="1.684" transform="translate(0 0.161)" fill="#353535"/>
        <ellipse id="Ellipse_20" data-name="Ellipse 20" cx="1.763" cy="2.131" rx="1.763" ry="2.131" transform="translate(13.067)" fill="#353535"/>
        <ellipse id="Ellipse_21" data-name="Ellipse 21" cx="1.763" cy="2.131" rx="1.763" ry="2.131" transform="translate(26.814)" fill="#353535"/>
        <ellipse id="Ellipse_22" data-name="Ellipse 22" cx="1.763" cy="2.131" rx="1.763" ry="2.131" transform="translate(40.474)" fill="#353535"/>
      </g>
      <g id="Group_57" data-name="Group 57" transform="translate(385.908 78.528)">
        <path id="Path_127" data-name="Path 127" d="M240.063,114.362a2.17,2.17,0,1,0-1.763-2.131A1.979,1.979,0,0,0,240.063,114.362Z" transform="translate(-238.3 -110.1)" fill="#353535"/>
        <ellipse id="Ellipse_27" data-name="Ellipse 27" cx="1.763" cy="2.131" rx="1.763" ry="2.131" transform="translate(13.66 0)" fill="#353535"/>
        <ellipse id="Ellipse_28" data-name="Ellipse 28" cx="1.763" cy="2.131" rx="1.763" ry="2.131" transform="translate(27.407 0)" fill="#353535"/>
        <ellipse id="Ellipse_29" data-name="Ellipse 29" cx="1.763" cy="2.131" rx="1.763" ry="2.131" transform="translate(41.067 0)" fill="#353535"/>
      </g>
      <line id="Line_1" data-name="Line 1" x2="12.25" transform="translate(600.145 179.005)" fill="none" stroke="#353535" stroke-miterlimit="10" stroke-width="0.5"/>
      <line id="Line_2" data-name="Line 2" y2="14.81" transform="translate(606.314 171.653)" fill="none" stroke="#353535" stroke-miterlimit="10" stroke-width="0.5"/>
      <line id="Line_7" data-name="Line 7" x2="12.25" transform="translate(296.107 162.489)" fill="none" stroke="#353535" stroke-miterlimit="10" stroke-width="0.5"/>
      <line id="Line_8" data-name="Line 8" y2="14.704" transform="translate(302.276 155.137)" fill="none" stroke="#353535" stroke-miterlimit="10" stroke-width="0.5"/>
      <line id="Line_11" data-name="Line 11" x2="12.162" transform="translate(200.313 7.352)" fill="none" stroke="#353535" stroke-miterlimit="10" stroke-width="0.5"/>
      <line id="Line_12" data-name="Line 12" y2="14.704" transform="translate(206.394)" fill="none" stroke="#353535" stroke-miterlimit="10" stroke-width="0.5"/>
      <path id="Path_132" data-name="Path 132" d="M-6,82.441,1.931,76.9V87.981Z" transform="translate(176.614 30.183)" fill="#353535"/>
      <path id="Path_135" data-name="Path 135" d="M222.8,3.341,230.731-2.2V8.881Z" transform="translate(149.449 193.564)" fill="#353535"/>
    </g>
  </g>
  <g id="digital-wallet" transform="translate(41 83.248)">
    <path id="Path_443277" data-name="Path 443277" d="M79.374,163.739v95.737a10.406,10.406,0,0,0,10.548,10.257H217.235a3.434,3.434,0,0,0,3.481-3.385V156.867a3.434,3.434,0,0,0-3.481-3.385H89.922A10.406,10.406,0,0,0,79.374,163.739Z" transform="translate(-52.152 -153.482)" fill="#00393a"/>
    <path id="Path_443278" data-name="Path 443278" d="M465.867,153.482V269.734h5.31a3.434,3.434,0,0,0,3.48-3.385V156.867a3.434,3.434,0,0,0-3.48-3.385Z" transform="translate(-306.093 -153.482)" fill="#197072"/>
    <path id="Path_443279" data-name="Path 443279" d="M120.381,280V197.874a3.434,3.434,0,0,1,3.481-3.385H230.114a3.434,3.434,0,0,1,3.481,3.385V280a3.434,3.434,0,0,1-3.481,3.385H123.862A3.434,3.434,0,0,1,120.381,280Z" transform="translate(-79.095 -180.812)" fill="#dcf5ff"/>
    <path id="Path_443281" data-name="Path 443281" d="M84.988,296.531H47.719a2.54,2.54,0,1,1,0-5.077H83.907l14-13.617a2.648,2.648,0,0,1,1.846-.743h59.771a2.54,2.54,0,1,1,0,5.077h-58.69l-14,13.617A2.649,2.649,0,0,1,84.988,296.531Z" transform="translate(-29.638 -235.867)" fill="#00393a"/>
    <path id="Path_443282" data-name="Path 443282" d="M10.346,297.6a10.064,10.064,0,1,0,0,20.121,10.064,10.064,0,1,0,0-20.121Z" transform="translate(0 -249.532)" fill="#80b314"/>
    <path id="Path_443283" data-name="Path 443283" d="M218.054,241.164H188.168a2.539,2.539,0,1,1,0-5.077h29.886a2.539,2.539,0,1,1,0,5.077Z" transform="translate(-121.919 -208.536)" fill="#00393a"/>
    <ellipse id="Ellipse_149" data-name="Ellipse 149" cx="10.346" cy="10.061" rx="10.346" ry="10.061" transform="translate(48.168 20.028)" fill="#80b314"/>
    <path id="Path_443284" data-name="Path 443284" d="M290.2,334.455H246.6a2.54,2.54,0,1,1,0-5.077h43.6a2.54,2.54,0,1,1,0,5.077Z" transform="translate(-160.313 -270.713)" fill="#00393a"/>
    <path id="Path_443285" data-name="Path 443285" d="M209.231,306.824a10.065,10.065,0,1,0,10.345,10.061A10.218,10.218,0,0,0,209.231,306.824Z" transform="translate(-130.675 -255.682)" fill="#80b314"/>
    <path id="Path_443286" data-name="Path 443286" d="M116.525,389.061H96.835a2.54,2.54,0,1,1,0-5.077H115.66l13.019-9.414a2.66,2.66,0,0,1,1.558-.5H198.8a2.54,2.54,0,1,1,0,5.077H131.1l-13.019,9.414A2.659,2.659,0,0,1,116.525,389.061Z" transform="translate(-61.91 -300.498)" fill="#00393a"/>
    <path id="Path_443287" data-name="Path 443287" d="M269.554,422.62h-50.63a2.54,2.54,0,1,1,0-5.077h50.63a2.54,2.54,0,1,1,0,5.077Z" transform="translate(-142.127 -329.473)" fill="#00393a"/>
    <path id="Path_443289" data-name="Path 443289" d="M421,307.281H385.586a6.767,6.767,0,0,1-6.859-6.67v-27.69a6.767,6.767,0,0,1,6.859-6.671H421a3.383,3.383,0,0,1,3.43,3.335v34.36A3.383,3.383,0,0,1,421,307.281Z" transform="translate(-248.839 -228.64)" fill="#00393a"/>
    <ellipse id="Ellipse_150" data-name="Ellipse 150" cx="10.548" cy="10.257" rx="10.548" ry="10.257" transform="translate(143.952 47.869)" fill="#fcdd2e"/>
    <path id="Path_443290" data-name="Path 443290" d="M437.324,300.4a9.982,9.982,0,0,1,1.163,4.681,10.406,10.406,0,0,1-10.548,10.257,10.742,10.742,0,0,1-4.814-1.131,10.582,10.582,0,0,0,9.384,5.576,10.406,10.406,0,0,0,10.548-10.257A10.226,10.226,0,0,0,437.324,300.4Z" transform="translate(-278.011 -251.4)" fill="#e6b700"/>
    <ellipse id="Ellipse_151" data-name="Ellipse 151" cx="10.346" cy="10.061" rx="10.346" ry="10.061" transform="translate(16.845 75.963)" fill="#80b314"/>
  </g>
</svg>
