<svg id="wallet" xmlns="http://www.w3.org/2000/svg" width="21" height="19.739" viewBox="0 0 21 19.739">
  <path id="Path_252" data-name="Path 252" d="M21.045,10.432V8.094a1.963,1.963,0,0,0-1.966-1.966H17.8L7.348,1.775a1.447,1.447,0,0,0-1.909.8L4.016,6.127H2.966A1.964,1.964,0,0,0,1,8.094v11.34A1.964,1.964,0,0,0,2.966,21.4H19.079a1.963,1.963,0,0,0,1.966-1.966V17.1A.989.989,0,0,0,22,16.112v-4.7a.989.989,0,0,0-.955-.983ZM6.326,2.93a.477.477,0,0,1,.267-.277.528.528,0,0,1,.382,0l8.343,3.475h-2.31L7.357,4.247a.477.477,0,0,0-.6.277l-.62,1.6H5.047Zm3.665,3.2H7.166l.315-.83Zm10.1,13.306a1.013,1.013,0,0,1-1.012,1.012H2.966a1.013,1.013,0,0,1-1.012-1.012V8.094A1.019,1.019,0,0,1,2.966,7.082H19.079a1.018,1.018,0,0,1,1.012,1.012v2.329H15.8a3.341,3.341,0,1,0,0,6.682h4.3Zm.955-3.322a.041.041,0,0,1-.038.038H15.8a2.386,2.386,0,1,1,0-4.773l5.25.038Z" transform="translate(-1 -1.661)" fill="#00393a"/>
  <path id="Path_253" data-name="Path 253" d="M15.841,10.681h4.3V8.352A1.019,1.019,0,0,0,19.125,7.34H3.012A1.019,1.019,0,0,0,2,8.352v11.34A1.013,1.013,0,0,0,3.012,20.7H19.125a1.013,1.013,0,0,0,1.012-1.012V17.363h-4.3a3.341,3.341,0,1,1,0-6.682ZM4.386,9.249H6.3a.477.477,0,1,1,0,.955H4.386a.477.477,0,1,1,0-.955ZM8.2,12.113H4.386a.477.477,0,1,1,0-.955H8.2a.477.477,0,1,1,0,.955Z" transform="translate(-1.045 -1.919)" fill="#fff"/>
  <path id="Path_254" data-name="Path 254" d="M10.285,6.3H7.46l.315-.83Z" transform="translate(-1.294 -1.834)" fill="#fff"/>
  <path id="Path_255" data-name="Path 255" d="M16.386,11.84a2.386,2.386,0,0,0,0,4.773H21.6a.041.041,0,0,0,.038-.038v-4.7Zm0,3.818a1.432,1.432,0,1,1,1.432-1.432A1.432,1.432,0,0,1,16.386,15.658Z" transform="translate(-1.591 -2.123)" fill="#80b314"/>
  <path id="Path_256" data-name="Path 256" d="M15.511,6.173H13.2L7.55,4.292a.477.477,0,0,0-.6.277l-.62,1.6H5.24l1.279-3.2A.477.477,0,0,1,6.786,2.7a.528.528,0,0,1,.382,0Z" transform="translate(-1.193 -1.706)" fill="#80b314"/>
  <path id="Path_257" data-name="Path 257" d="M16.432,12.84a1.432,1.432,0,1,0,1.432,1.432A1.432,1.432,0,0,0,16.432,12.84Zm0,1.909a.477.477,0,1,1,.477-.477A.477.477,0,0,1,16.432,14.749Z" transform="translate(-1.636 -2.169)" fill="#ffc72b"/>
  <circle id="Ellipse_95" data-name="Ellipse 95" cx="0.477" cy="0.477" r="0.477" transform="translate(14.318 11.626)" fill="#80b314"/>
  <g id="Group_128" data-name="Group 128" transform="translate(2.864 7.33)">
    <path id="Path_258" data-name="Path 258" d="M6.864,9.817a.477.477,0,0,1-.477.477H4.477a.477.477,0,1,1,0-.955H6.386A.477.477,0,0,1,6.864,9.817Z" transform="translate(-4 -9.34)" fill="#00393a"/>
    <path id="Path_259" data-name="Path 259" d="M8.773,11.817a.477.477,0,0,1-.477.477H4.477a.477.477,0,1,1,0-.955H8.3A.477.477,0,0,1,8.773,11.817Z" transform="translate(-4 -9.431)" fill="#00393a"/>
  </g>
</svg>
