<svg id="Component_26_1" data-name="Component 26 – 1" xmlns="http://www.w3.org/2000/svg" width="45" height="44.38" viewBox="0 0 45 44.38">
  <rect id="Rectangle_11" data-name="Rectangle 11" width="45" height="44.38" rx="11" fill="#00393a"/>
  <g id="worldwide" transform="translate(9.999 10)">
    <path id="Path_397" data-name="Path 397" d="M188.4,3.713A17.194,17.194,0,0,0,185.4,0a17.194,17.194,0,0,0-3,3.713Zm0,0" transform="translate(-172.898)" fill="#f4f6f8"/>
    <path id="Path_398" data-name="Path 398" d="M149.412,87.281a16.915,16.915,0,0,0-1.323,3.333h9.574a16.917,16.917,0,0,0-1.323-3.333Zm0,0" transform="translate(-140.375 -82.735)" fill="#f4f6f8"/>
    <path id="Path_399" data-name="Path 399" d="M325.741,90.614h5.975a12.494,12.494,0,0,0-1.958-3.333h-5.27A17.77,17.77,0,0,1,325.741,90.614Zm0,0" transform="translate(-307.587 -82.735)" fill="#f4f6f8"/>
    <path id="Path_400" data-name="Path 400" d="M324.488,330.614h5.271a12.5,12.5,0,0,0,1.958-3.333h-5.976A17.78,17.78,0,0,1,324.488,330.614Zm0,0" transform="translate(-307.586 -310.235)" fill="#f4f6f8"/>
    <path id="Path_401" data-name="Path 401" d="M23.925,87.281H18.654A12.486,12.486,0,0,0,16.7,90.615h5.977a17.769,17.769,0,0,1,1.253-3.333Zm0,0" transform="translate(-15.825 -82.735)" fill="#f4f6f8"/>
    <path id="Path_402" data-name="Path 402" d="M270.572,4.083A12.459,12.459,0,0,0,262.84.391a18,18,0,0,1,2.769,3.692Zm0,0" transform="translate(-249.149 -0.37)" fill="#f4f6f8"/>
    <path id="Path_403" data-name="Path 403" d="M68.68,407.281a12.459,12.459,0,0,0,7.733,3.692,18,18,0,0,1-2.769-3.692Zm0,0" transform="translate(-65.102 -386.068)" fill="#f4f6f8"/>
    <path id="Path_404" data-name="Path 404" d="M262.84,410.973a12.458,12.458,0,0,0,7.732-3.692h-4.963A18,18,0,0,1,262.84,410.973Zm0,0" transform="translate(-249.149 -386.069)" fill="#f4f6f8"/>
    <path id="Path_405" data-name="Path 405" d="M22.7,327.281H16.727a12.5,12.5,0,0,0,1.958,3.333h5.27a17.779,17.779,0,0,1-1.253-3.333Zm0,0" transform="translate(-15.855 -310.235)" fill="#f4f6f8"/>
    <path id="Path_406" data-name="Path 406" d="M76.413.391A12.458,12.458,0,0,0,68.68,4.083h4.965A18,18,0,0,1,76.413.391Zm0,0" transform="translate(-65.102 -0.37)" fill="#f4f6f8"/>
    <path id="Path_407" data-name="Path 407" d="M156.342,330.614a16.921,16.921,0,0,0,1.323-3.333H148.09a16.921,16.921,0,0,0,1.323,3.333Zm0,0" transform="translate(-140.376 -310.235)" fill="#f4f6f8"/>
    <path id="Path_408" data-name="Path 408" d="M182.4,407.281a17.193,17.193,0,0,0,3,3.712,17.193,17.193,0,0,0,3-3.712Zm0,0" transform="translate(-172.897 -386.068)" fill="#f4f6f8"/>
    <path id="Path_409" data-name="Path 409" d="M24.428,167.281H.574a12.552,12.552,0,0,0,0,7.5H24.428A12.552,12.552,0,0,0,24.428,167.281ZM6.653,173.224a.417.417,0,0,1-.4.307H6.251a.417.417,0,0,1-.4-.3L5,170.4l-.851,2.836a.417.417,0,0,1-.4.3H3.746a.417.417,0,0,1-.4-.307L2.1,168.64l.8-.219L3.77,171.6l.833-2.772a.417.417,0,0,1,.8,0l.833,2.772.867-3.179.8.219Zm7.5,0a.417.417,0,0,1-.4.307h-.005a.417.417,0,0,1-.4-.3L12.5,170.4l-.851,2.836a.417.417,0,0,1-.4.3h-.005a.417.417,0,0,1-.4-.307L9.6,168.64l.8-.219.867,3.179.833-2.772a.417.417,0,0,1,.8,0l.833,2.772.867-3.179.8.219Zm7.5,0a.417.417,0,0,1-.4.307h-.005a.417.417,0,0,1-.4-.3L20,170.4l-.851,2.836a.417.417,0,0,1-.4.3h-.005a.417.417,0,0,1-.4-.307L17.1,168.64l.8-.219.867,3.179.833-2.772a.417.417,0,0,1,.8,0l.833,2.772.867-3.179.8.219Zm0,0" transform="translate(0 -158.568)" fill="#f4f6f8"/>
  </g>
</svg>
