<svg id="Component_27_1" data-name="Component 27 – 1" xmlns="http://www.w3.org/2000/svg" width="45" height="44.38" viewBox="0 0 45 44.38">
  <rect id="Rectangle_11" data-name="Rectangle 11" width="45" height="44.38" rx="11" fill="#00393a"/>
  <path id="youtube" d="M24.486-3.343a3.132,3.132,0,0,0-2.2-2.2c-1.956-.535-9.782-.535-9.782-.535s-7.825,0-9.782.515a3.2,3.2,0,0,0-2.2,2.224A33,33,0,0,0,0,2.67,32.881,32.881,0,0,0,.516,8.683a3.132,3.132,0,0,0,2.2,2.2c1.977.535,9.782.535,9.782.535s7.825,0,9.782-.515a3.132,3.132,0,0,0,2.2-2.2A33.012,33.012,0,0,0,25,2.691a31.327,31.327,0,0,0-.515-6.034ZM10.009,6.418v-7.5L16.516,2.67Zm0,0" transform="translate(9.999 19.082)" fill="#f4f6f8"/>
</svg>
